<svg id="svg" version="1.1" xmlns="http://www.w3.org/2000/svg" xmlns:xlink="http://www.w3.org/1999/xlink" width="400" height="400" viewBox="0, 0, 400,400"><g id="svgg"><path id="path0" d="M0.000 200.000 L 0.000 400.000 200.000 400.000 L 400.000 400.000 400.000 200.000 L 400.000 0.000 200.000 0.000 L 0.000 0.000 0.000 200.000 M176.915 105.598 C 177.475 107.737,170.677 116.208,165.937 119.280 L 164.040 120.509 164.250 123.154 L 164.460 125.800 167.330 128.542 C 173.875 134.796,183.004 141.676,188.311 144.355 L 190.814 145.618 193.107 144.930 C 196.760 143.832,202.677 143.990,206.292 145.281 L 209.183 146.314 212.692 144.312 C 217.688 141.461,223.535 137.238,228.400 132.966 C 234.930 127.232,235.236 126.859,235.117 124.772 C 235.061 123.797,235.149 122.359,235.312 121.576 C 235.605 120.164,235.584 120.136,232.704 118.120 C 226.634 113.873,221.765 108.469,222.070 106.318 C 222.493 103.331,229.042 106.598,235.600 113.069 C 239.379 116.797,239.409 116.817,241.028 116.574 C 246.050 115.823,250.552 120.288,249.751 125.225 C 249.535 126.557,249.613 126.656,252.264 128.400 C 257.535 131.868,264.128 139.247,263.475 140.948 C 262.684 143.009,254.678 138.406,249.000 132.626 C 246.719 130.303,246.531 130.197,245.200 130.482 C 244.430 130.647,243.148 130.880,242.351 130.999 C 239.786 131.385,227.449 144.658,222.403 152.461 C 219.659 156.704,219.720 156.416,220.861 159.713 C 222.112 163.331,222.105 169.215,220.845 172.923 L 219.919 175.647 221.809 178.923 C 228.497 190.519,238.154 201.200,241.951 201.200 C 243.049 201.200,244.382 201.365,244.913 201.567 C 245.771 201.893,246.034 201.726,247.275 200.067 C 252.829 192.639,260.910 186.796,261.791 189.571 C 262.509 191.833,257.204 198.816,251.108 203.635 L 249.010 205.293 249.139 207.801 C 249.403 212.930,245.131 216.783,240.479 215.611 L 238.615 215.142 237.443 216.671 C 233.549 221.749,225.968 228.000,223.704 228.000 C 223.227 228.000,222.800 227.069,222.800 226.029 C 222.800 224.227,229.148 216.330,233.071 213.252 C 235.120 211.645,235.138 211.610,234.740 210.167 C 234.518 209.364,234.444 208.279,234.575 207.755 C 234.862 206.613,234.228 205.904,227.400 199.727 C 220.667 193.635,210.969 186.400,209.538 186.400 C 209.361 186.400,207.818 186.884,206.108 187.475 C 201.628 189.025,197.076 189.018,192.310 187.456 L 188.820 186.312 187.010 187.373 C 175.368 194.196,164.673 204.331,164.309 208.887 L 164.094 211.575 166.347 213.260 C 174.122 219.075,179.144 225.897,176.195 226.637 C 174.030 227.180,165.845 221.535,162.551 217.227 C 161.072 215.293,160.935 215.212,159.600 215.489 C 153.180 216.821,148.733 212.353,150.143 205.987 C 150.442 204.639,150.389 204.543,148.972 203.867 C 143.426 201.222,135.218 191.706,136.819 189.777 C 138.339 187.945,148.198 194.446,152.064 199.829 L 153.331 201.593 156.165 201.348 C 158.856 201.115,159.098 201.009,160.940 199.251 C 166.084 194.342,174.545 183.259,177.272 177.857 L 178.483 175.457 177.742 173.029 C 176.507 168.986,176.697 162.638,178.174 158.553 L 179.349 155.306 177.397 152.153 C 170.750 141.411,160.966 130.955,157.749 131.153 C 156.785 131.212,155.360 131.051,154.584 130.795 C 153.257 130.357,153.118 130.397,152.286 131.455 C 145.680 139.856,137.200 145.363,137.200 141.251 C 137.200 138.960,142.737 132.308,147.582 128.781 L 149.987 127.029 149.745 124.968 C 149.106 119.532,153.572 115.517,158.893 116.746 C 160.008 117.003,160.948 117.166,160.982 117.107 C 164.840 110.501,176.075 102.386,176.915 105.598 M156.680 123.053 C 155.995 123.739,156.408 124.855,157.300 124.728 C 157.888 124.644,158.200 124.325,158.200 123.805 C 158.200 123.012,157.211 122.522,156.680 123.053 M241.450 123.415 C 241.093 124.345,241.488 124.800,242.651 124.800 C 243.464 124.800,243.631 124.628,243.528 123.900 C 243.372 122.803,241.823 122.442,241.450 123.415 M199.029 165.429 C 197.679 166.778,198.957 168.785,200.795 168.202 C 201.778 167.890,202.165 166.656,201.608 165.615 C 201.088 164.643,199.900 164.557,199.029 165.429 M156.400 208.628 C 156.400 209.465,156.567 209.632,157.300 209.528 C 158.681 209.332,158.796 207.600,157.428 207.600 C 156.591 207.600,156.400 207.791,156.400 208.628 M241.055 208.200 C 240.713 209.093,241.189 210.000,242.000 210.000 C 242.900 210.000,243.361 208.875,242.758 208.149 C 242.158 207.426,241.343 207.450,241.055 208.200 " stroke="none" fill="#fbfbfb" fill-rule="evenodd"></path><path id="path1" d="M172.036 106.941 C 169.561 108.502,164.028 113.839,162.331 116.302 C 161.119 118.062,160.416 118.213,158.346 117.155 C 154.984 115.438,150.137 120.093,150.506 124.686 L 150.710 127.224 148.868 128.491 C 143.522 132.169,136.404 140.997,137.987 141.987 C 139.518 142.945,147.657 136.521,151.888 131.014 C 153.030 129.527,153.172 129.459,154.172 129.914 C 154.758 130.181,156.317 130.400,157.636 130.400 L 160.034 130.400 164.669 135.100 C 172.894 143.441,180.509 154.389,179.617 156.593 C 177.134 162.731,176.849 169.920,178.915 174.306 C 180.405 177.470,160.686 203.460,158.037 201.823 C 157.833 201.697,156.732 201.795,155.589 202.040 L 153.512 202.485 151.760 200.483 C 146.602 194.587,140.589 190.043,137.900 190.009 C 134.616 189.968,143.571 200.280,149.712 203.612 C 150.691 204.144,150.970 204.538,150.873 205.256 C 150.302 209.511,150.330 209.966,151.258 211.619 C 152.914 214.565,156.299 215.867,159.393 214.748 C 160.628 214.301,160.687 214.341,164.621 218.287 C 171.680 225.368,178.268 228.711,176.173 224.150 C 175.276 222.197,168.555 215.479,165.467 213.448 C 163.334 212.045,163.161 211.824,163.444 210.857 C 163.614 210.276,163.769 208.979,163.787 207.976 C 163.829 205.724,165.100 204.065,170.712 198.935 C 177.660 192.583,187.866 185.312,189.200 185.764 C 196.972 188.396,200.625 188.569,206.532 186.585 L 209.613 185.550 211.996 186.997 C 217.741 190.487,221.924 193.833,230.700 201.955 L 235.200 206.121 235.200 208.087 C 235.200 209.168,235.407 210.440,235.660 210.913 C 236.062 211.662,235.972 211.877,234.966 212.586 C 229.886 216.166,222.323 225.683,223.568 226.928 C 224.821 228.181,232.630 222.034,236.414 216.816 C 237.979 214.658,238.324 214.384,239.200 214.605 C 242.880 215.533,244.159 215.338,246.212 213.536 C 248.475 211.549,249.343 208.680,248.418 206.246 C 248.067 205.325,248.243 205.076,250.518 203.261 C 253.589 200.812,257.827 196.419,259.531 193.919 C 265.156 185.663,255.761 190.331,248.693 199.304 C 246.344 202.286,246.139 202.447,245.003 202.180 C 244.341 202.025,242.810 201.893,241.600 201.887 L 239.400 201.875 235.980 198.421 C 226.583 188.931,218.805 177.061,219.782 173.702 C 220.952 169.676,221.200 168.447,221.200 166.673 C 221.200 164.593,220.633 161.514,219.724 158.654 C 219.128 156.779,219.139 156.646,220.021 155.054 C 224.744 146.524,239.475 130.400,242.544 130.400 C 243.424 130.400,244.733 130.187,245.454 129.926 C 246.758 129.454,246.782 129.468,250.282 132.835 C 256.884 139.183,264.459 143.132,262.271 139.084 C 260.660 136.105,250.867 127.200,249.202 127.200 C 249.039 127.200,248.921 125.985,248.941 124.500 C 249.006 119.536,246.940 117.415,242.000 117.377 L 239.000 117.354 235.400 113.732 C 230.264 108.565,223.704 104.538,222.801 105.998 C 221.857 107.526,227.828 114.240,233.121 117.600 C 236.391 119.677,236.493 119.830,235.937 121.844 C 235.708 122.671,235.632 124.040,235.767 124.884 C 236.245 127.876,225.519 137.369,213.653 144.456 L 209.106 147.172 207.653 146.543 C 203.248 144.637,197.622 144.252,193.315 145.562 L 190.829 146.318 188.438 145.187 C 179.964 141.179,163.669 127.402,163.738 124.304 C 163.759 123.367,163.634 122.130,163.459 121.556 C 163.172 120.613,163.349 120.363,165.271 118.991 C 174.440 112.443,180.540 101.579,172.036 106.941 M243.530 122.348 C 243.848 122.550,244.008 123.225,243.930 124.042 C 243.714 126.298,240.800 126.045,240.800 123.771 C 240.800 122.422,242.362 121.608,243.530 122.348 M158.958 123.300 C 159.551 124.247,158.831 125.362,157.525 125.520 C 156.234 125.676,155.437 124.706,155.769 123.381 C 156.077 122.153,158.205 122.099,158.958 123.300 M206.919 147.923 C 216.367 152.102,222.134 163.926,218.859 172.400 C 210.267 194.625,179.366 188.685,180.482 165.023 C 181.076 152.429,195.709 142.964,206.919 147.923 M195.400 149.366 C 189.648 151.024,185.346 155.121,182.851 161.319 C 182.045 163.319,182.286 170.061,183.257 172.685 C 186.195 180.625,195.540 186.131,203.130 184.394 C 217.754 181.047,223.092 165.084,213.199 154.279 C 209.007 149.701,201.462 147.618,195.400 149.366 M202.798 152.599 C 203.083 152.775,203.841 152.904,204.484 152.885 C 205.143 152.867,205.989 153.189,206.426 153.626 C 206.852 154.052,207.564 154.400,208.009 154.400 C 208.481 154.400,209.005 154.812,209.270 155.394 C 209.519 155.940,210.235 156.614,210.861 156.891 C 211.583 157.211,212.000 157.698,212.000 158.222 C 212.000 158.677,212.404 159.483,212.897 160.012 C 213.391 160.542,213.821 161.509,213.854 162.162 C 213.887 162.814,214.239 163.585,214.635 163.875 C 215.195 164.285,215.250 164.510,214.879 164.881 C 214.253 165.507,214.265 167.303,214.900 167.947 C 215.301 168.353,215.261 168.557,214.700 168.971 C 214.289 169.275,214.000 170.012,214.000 170.757 C 214.000 171.474,213.757 172.118,213.441 172.240 C 213.133 172.358,212.691 173.207,212.459 174.127 C 212.177 175.244,211.731 175.933,211.118 176.200 C 210.613 176.420,210.022 177.005,209.805 177.500 C 209.565 178.048,209.060 178.400,208.514 178.400 C 208.014 178.400,207.345 178.817,206.999 179.345 C 206.518 180.080,206.020 180.291,204.774 180.291 C 203.704 180.291,202.996 180.525,202.655 180.993 C 202.207 181.605,202.029 181.625,201.271 181.151 C 200.550 180.701,200.255 180.698,199.562 181.131 C 198.863 181.567,198.613 181.559,198.062 181.084 C 197.205 180.344,195.664 179.973,195.377 180.438 C 195.025 181.007,194.400 180.861,194.400 180.210 C 194.400 179.561,192.454 178.418,191.769 178.665 C 191.532 178.751,191.135 178.375,190.886 177.830 C 190.638 177.284,189.903 176.563,189.253 176.227 C 188.394 175.783,188.126 175.404,188.273 174.842 C 188.413 174.309,188.144 173.851,187.410 173.370 C 186.636 172.863,186.404 172.440,186.559 171.821 C 186.677 171.352,186.515 170.472,186.200 169.865 C 185.864 169.218,185.725 168.274,185.864 167.582 C 186.008 166.862,185.891 166.151,185.565 165.758 C 185.112 165.212,185.137 165.036,185.725 164.605 C 186.160 164.288,186.438 163.515,186.467 162.548 C 186.495 161.612,186.808 160.717,187.257 160.284 C 187.987 159.582,188.159 159.095,188.030 158.100 C 187.994 157.825,188.235 157.600,188.565 157.600 C 188.896 157.600,189.669 156.970,190.283 156.200 C 190.897 155.430,191.658 154.800,191.974 154.800 C 192.290 154.800,192.959 154.414,193.462 153.942 C 193.964 153.470,194.937 153.040,195.624 152.986 C 196.311 152.931,197.037 152.723,197.237 152.523 C 197.674 152.086,202.065 152.146,202.798 152.599 M199.467 155.067 C 199.045 155.489,199.157 159.126,199.600 159.400 C 200.095 159.706,200.132 161.200,199.645 161.200 C 199.304 161.200,199.096 160.447,198.484 157.000 C 198.262 155.752,198.002 155.372,197.300 155.272 C 196.205 155.117,196.075 156.368,197.002 158.146 C 197.700 159.484,197.755 160.000,197.200 160.000 C 196.980 160.000,196.800 159.730,196.800 159.400 C 196.800 159.070,196.620 158.800,196.400 158.800 C 196.180 158.800,196.000 158.362,196.000 157.827 C 196.000 156.835,194.808 156.101,194.004 156.598 C 193.258 157.059,193.590 157.850,195.193 159.430 C 196.070 160.293,196.790 161.323,196.793 161.719 C 196.798 162.209,196.117 161.704,194.650 160.128 C 192.791 158.130,192.415 157.890,191.865 158.346 C 190.953 159.103,191.897 160.416,194.207 161.604 C 195.965 162.508,196.515 163.200,195.475 163.200 C 195.187 163.200,194.564 162.840,194.092 162.400 C 193.620 161.960,193.119 161.600,192.978 161.600 C 192.838 161.600,192.221 161.242,191.607 160.805 C 190.399 159.945,189.340 160.457,189.807 161.674 C 190.021 162.232,192.145 163.200,193.157 163.200 C 193.432 163.200,193.916 163.459,194.233 163.776 C 194.894 164.437,192.148 164.214,191.420 163.548 C 191.211 163.357,190.536 163.200,189.920 163.200 C 188.212 163.200,188.357 164.725,190.100 165.098 L 191.400 165.377 190.005 165.588 C 187.713 165.936,187.935 167.977,190.267 167.994 C 190.743 167.997,191.199 167.804,191.278 167.565 C 191.358 167.326,191.958 167.201,192.612 167.289 C 193.645 167.427,193.695 167.488,193.000 167.753 C 192.560 167.921,191.887 168.225,191.505 168.429 C 191.123 168.633,190.358 168.800,189.805 168.800 C 189.067 168.800,188.800 169.012,188.800 169.600 C 188.800 170.168,189.067 170.400,189.720 170.400 C 190.774 170.400,192.792 169.547,192.797 169.100 C 192.799 168.935,193.160 168.800,193.600 168.800 C 194.796 168.800,194.567 169.333,193.100 169.965 C 190.891 170.918,189.616 171.976,189.872 172.644 C 190.227 173.569,191.897 172.992,193.571 171.365 C 194.354 170.605,195.058 170.175,195.137 170.410 C 195.215 170.646,194.451 171.582,193.440 172.491 C 191.470 174.261,191.110 175.200,192.401 175.200 C 192.903 175.200,193.736 174.455,194.638 173.200 C 195.428 172.100,196.238 171.200,196.438 171.200 C 197.003 171.200,196.866 171.776,196.100 172.625 C 194.810 174.054,193.791 176.351,194.246 176.806 C 194.841 177.401,196.000 176.855,196.000 175.981 C 196.000 175.577,196.180 175.136,196.400 175.000 C 196.620 174.864,196.800 174.324,196.800 173.800 C 196.800 173.276,196.980 172.736,197.200 172.600 C 197.844 172.202,197.665 174.546,196.940 176.000 C 196.319 177.246,196.322 177.354,196.999 177.849 C 197.971 178.560,198.399 178.203,198.406 176.676 C 198.409 175.974,198.587 175.130,198.800 174.800 C 199.078 174.370,199.189 174.797,199.194 176.300 C 199.200 178.247,199.270 178.400,200.157 178.400 C 201.433 178.400,202.304 175.901,201.161 175.520 C 200.919 175.440,200.793 174.930,200.880 174.387 C 201.063 173.249,202.400 175.767,202.400 177.249 C 202.400 177.733,202.684 178.000,203.200 178.000 C 204.300 178.000,204.023 175.167,202.808 174.000 C 202.253 173.467,201.638 172.000,201.969 172.000 C 202.497 172.000,204.000 174.192,204.000 174.962 C 204.000 175.313,204.180 175.600,204.400 175.600 C 204.620 175.600,204.800 175.870,204.800 176.200 C 204.800 176.826,206.203 177.043,206.556 176.471 C 206.845 176.004,205.922 174.358,204.669 173.105 C 204.081 172.517,203.604 171.803,203.609 171.518 C 203.613 171.233,204.526 171.945,205.637 173.100 C 207.724 175.270,208.800 175.736,208.800 174.470 C 208.800 173.657,207.574 172.450,205.900 171.614 C 204.957 171.143,204.399 170.400,204.988 170.400 C 205.278 170.400,208.153 172.031,208.580 172.438 C 209.100 172.934,210.295 172.894,210.619 172.369 C 211.010 171.737,209.392 170.400,208.236 170.400 C 207.070 170.400,205.200 169.621,205.200 169.136 C 205.200 168.680,206.548 168.709,207.020 169.175 C 207.730 169.876,211.600 170.177,211.600 169.532 C 211.600 168.425,210.634 168.000,208.120 168.000 C 206.604 168.000,205.600 167.830,205.600 167.574 C 205.600 167.301,206.717 167.180,208.700 167.238 C 212.475 167.349,213.520 166.014,210.000 165.576 C 208.211 165.354,208.353 165.097,210.527 164.619 C 211.315 164.446,211.611 164.166,211.511 163.686 C 211.349 162.903,209.053 162.892,208.118 163.668 C 207.822 163.913,207.474 164.007,207.343 163.876 C 206.956 163.489,208.192 162.484,209.235 162.336 C 209.951 162.235,210.200 161.951,210.200 161.233 C 210.200 159.742,209.501 159.834,207.507 161.589 C 205.911 162.994,204.800 163.585,204.800 163.028 C 204.800 162.934,205.745 161.954,206.900 160.851 C 208.519 159.305,208.892 158.736,208.527 158.370 C 207.801 157.639,206.959 158.177,205.374 160.383 C 203.759 162.632,203.768 162.626,202.971 161.829 C 202.324 161.181,202.233 160.341,202.750 159.780 C 203.401 159.075,203.691 155.200,203.094 155.200 C 202.026 155.200,201.600 156.192,201.600 158.680 C 201.600 160.093,201.424 161.200,201.200 161.200 C 200.735 161.200,200.721 161.073,200.796 157.500 C 200.852 154.902,200.420 154.113,199.467 155.067 M204.659 156.840 C 204.296 157.263,204.000 157.959,204.000 158.386 C 204.000 158.813,203.791 159.622,203.535 160.183 C 203.279 160.744,203.181 161.314,203.316 161.449 C 203.623 161.756,204.800 160.616,204.800 160.012 C 204.800 159.767,205.160 159.180,205.600 158.708 C 206.040 158.236,206.400 157.542,206.400 157.167 C 206.400 156.150,205.409 155.964,204.659 156.840 M201.786 162.968 C 205.695 164.602,204.747 170.108,200.459 170.683 C 196.320 171.238,194.535 165.370,198.168 163.154 C 199.648 162.252,200.025 162.232,201.786 162.968 M206.800 164.400 C 206.800 164.620,206.440 164.800,206.000 164.800 C 205.560 164.800,205.200 164.620,205.200 164.400 C 205.200 164.180,205.560 164.000,206.000 164.000 C 206.440 164.000,206.800 164.180,206.800 164.400 M207.400 166.000 C 207.264 166.220,206.803 166.400,206.376 166.400 C 205.949 166.400,205.600 166.220,205.600 166.000 C 205.600 165.780,206.061 165.600,206.624 165.600 C 207.204 165.600,207.540 165.773,207.400 166.000 M158.571 207.429 C 159.780 208.637,159.084 210.400,157.400 210.400 C 155.716 210.400,155.020 208.637,156.229 207.429 C 156.574 207.083,157.101 206.800,157.400 206.800 C 157.699 206.800,158.226 207.083,158.571 207.429 M243.513 208.009 C 244.254 209.196,243.493 210.400,242.000 210.400 C 240.549 210.400,239.754 209.207,240.400 208.000 C 240.972 206.931,242.843 206.937,243.513 208.009 " stroke="none" fill="#24201f" fill-rule="evenodd"></path><path id="path2" d="M165.578 111.900 L 164.200 113.400 165.700 112.022 C 166.525 111.263,167.200 110.588,167.200 110.522 C 167.200 110.216,166.862 110.504,165.578 111.900 M198.711 147.493 C 199.651 147.578,201.091 147.577,201.911 147.491 C 202.730 147.405,201.960 147.336,200.200 147.337 C 198.440 147.339,197.770 147.409,198.711 147.493 M199.107 148.290 C 199.826 148.379,200.906 148.377,201.507 148.286 C 202.108 148.195,201.520 148.122,200.200 148.124 C 198.880 148.126,198.388 148.201,199.107 148.290 M204.200 148.406 C 203.265 148.641,203.398 148.674,204.800 148.556 C 206.073 148.450,206.424 148.520,206.000 148.797 C 205.467 149.144,205.467 149.189,206.000 149.199 C 206.330 149.206,207.050 149.316,207.600 149.445 C 208.476 149.650,208.437 149.574,207.290 148.839 C 206.570 148.378,205.850 148.024,205.690 148.053 C 205.531 148.082,204.860 148.241,204.200 148.406 M191.100 149.429 C 189.549 150.270,189.725 150.561,191.300 149.759 C 192.808 148.993,193.075 148.794,192.567 148.816 C 192.365 148.825,191.705 149.101,191.100 149.429 M186.400 153.000 C 185.428 153.990,184.723 154.800,184.833 154.800 C 184.943 154.800,185.828 153.990,186.800 153.000 C 187.772 152.010,188.477 151.200,188.367 151.200 C 188.257 151.200,187.372 152.010,186.400 153.000 M186.378 154.300 L 185.000 155.800 186.500 154.422 C 187.325 153.663,188.000 152.988,188.000 152.922 C 188.000 152.616,187.662 152.904,186.378 154.300 M197.600 153.200 C 197.600 153.420,197.240 153.600,196.800 153.600 C 196.356 153.600,196.000 153.867,196.000 154.200 C 196.000 154.530,195.820 154.800,195.600 154.800 C 195.380 154.800,195.200 154.628,195.200 154.419 C 195.200 154.209,194.661 154.344,194.003 154.719 C 193.344 155.093,192.804 155.535,192.803 155.700 C 192.801 155.865,192.533 156.000,192.208 156.000 C 191.882 156.000,191.502 156.450,191.364 157.000 C 191.226 157.550,190.945 158.000,190.738 158.000 C 190.213 158.000,188.400 159.869,188.400 160.410 C 188.400 160.662,188.674 160.583,189.029 160.229 C 189.374 159.883,189.909 159.600,190.216 159.600 C 190.523 159.600,190.690 159.375,190.585 159.100 C 190.481 158.825,190.936 158.240,191.597 157.800 C 192.257 157.360,192.798 156.852,192.799 156.671 C 192.799 156.491,193.057 156.086,193.371 155.771 C 194.014 155.129,195.784 154.979,195.400 155.600 C 195.264 155.820,195.343 156.000,195.576 156.000 C 195.809 156.000,196.000 155.751,196.000 155.447 C 196.000 155.142,196.315 154.782,196.700 154.646 C 197.085 154.511,197.625 154.295,197.900 154.166 C 198.233 154.011,198.400 154.287,198.400 154.990 C 198.400 155.593,198.572 155.941,198.800 155.800 C 199.387 155.437,199.287 154.030,198.629 153.371 C 197.958 152.701,197.600 152.642,197.600 153.200 M199.878 153.456 C 199.558 153.775,199.919 154.400,200.424 154.400 C 200.631 154.400,200.800 154.130,200.800 153.800 C 200.800 153.181,200.328 153.005,199.878 153.456 M201.600 154.000 C 201.600 154.440,201.780 154.800,202.000 154.800 C 202.220 154.800,202.400 154.440,202.400 154.000 C 202.400 153.560,202.220 153.200,202.000 153.200 C 201.780 153.200,201.600 153.560,201.600 154.000 M204.473 155.400 C 204.196 156.008,204.170 156.400,204.409 156.400 C 204.624 156.400,204.800 156.130,204.800 155.800 C 204.800 155.470,204.980 155.200,205.200 155.200 C 205.420 155.200,205.600 155.020,205.600 154.800 C 205.600 154.044,204.928 154.401,204.473 155.400 M207.200 156.467 C 207.200 156.870,207.359 157.200,207.553 157.200 C 207.748 157.200,207.993 156.870,208.098 156.467 C 208.215 156.020,208.077 155.733,207.745 155.733 C 207.445 155.733,207.200 156.063,207.200 156.467 M209.145 157.121 C 209.606 157.444,209.606 157.538,209.145 157.725 C 208.773 157.876,208.885 158.033,209.500 158.220 C 210.575 158.547,210.670 159.071,209.700 159.324 C 209.069 159.489,209.067 159.512,209.676 159.554 C 210.715 159.625,211.013 158.745,210.161 158.122 C 209.742 157.816,209.459 157.443,209.530 157.293 C 209.601 157.143,209.422 156.957,209.130 156.880 C 208.712 156.769,208.715 156.820,209.145 157.121 M181.833 159.900 C 181.712 160.285,181.768 161.140,181.958 161.800 C 182.265 162.865,182.298 162.786,182.252 161.100 C 182.194 158.997,182.154 158.882,181.833 159.900 M210.939 159.815 C 210.809 160.153,210.995 160.752,211.351 161.146 C 211.708 161.541,212.000 162.325,212.000 162.889 C 212.000 163.453,212.270 164.018,212.600 164.145 C 213.286 164.408,213.466 163.012,212.800 162.600 C 212.580 162.464,212.400 162.003,212.400 161.576 C 212.400 161.149,212.130 160.800,211.800 160.800 C 211.470 160.800,211.200 160.519,211.200 160.176 C 211.200 159.807,211.388 159.669,211.662 159.838 C 211.948 160.015,212.015 159.948,211.838 159.662 C 211.454 159.041,211.221 159.080,210.939 159.815 M187.456 162.199 C 187.109 163.103,187.134 163.288,187.566 163.021 C 187.767 162.897,188.023 163.021,188.134 163.298 C 188.273 163.643,188.345 163.612,188.362 163.200 C 188.407 162.148,187.753 161.425,187.456 162.199 M180.944 166.400 C 180.944 168.490,181.012 169.345,181.094 168.300 C 181.176 167.255,181.176 165.545,181.094 164.500 C 181.012 163.455,180.944 164.310,180.944 166.400 M198.300 164.557 C 197.915 164.849,197.612 165.428,197.627 165.844 C 197.652 166.527,197.694 166.517,198.069 165.742 C 198.298 165.271,198.871 164.698,199.342 164.469 C 199.885 164.207,199.979 164.049,199.600 164.040 C 199.270 164.032,198.685 164.265,198.300 164.557 M200.800 164.236 C 200.800 164.552,202.516 165.970,202.918 165.987 C 203.093 165.994,202.786 165.550,202.236 165.000 C 201.250 164.014,200.800 163.774,200.800 164.236 M210.000 165.200 C 210.000 165.420,210.495 165.597,211.100 165.594 C 211.957 165.589,212.068 165.502,211.600 165.200 C 210.817 164.694,210.000 164.694,210.000 165.200 M212.533 165.953 C 212.533 166.823,212.650 166.998,213.006 166.665 C 213.266 166.422,213.395 165.903,213.293 165.512 C 213.003 164.402,212.533 164.675,212.533 165.953 M176.893 166.400 C 176.893 167.170,176.975 167.485,177.076 167.100 C 177.176 166.715,177.176 166.085,177.076 165.700 C 176.975 165.315,176.893 165.630,176.893 166.400 M186.800 166.800 C 186.800 167.020,187.070 167.200,187.400 167.200 C 187.730 167.200,188.000 167.020,188.000 166.800 C 188.000 166.580,187.730 166.400,187.400 166.400 C 187.070 166.400,186.800 166.580,186.800 166.800 M203.600 167.176 C 203.600 167.484,203.340 167.586,202.943 167.434 C 202.384 167.219,202.365 167.276,202.813 167.816 C 203.293 168.394,203.372 168.392,203.707 167.795 C 203.908 167.435,203.967 167.033,203.837 166.903 C 203.706 166.773,203.600 166.896,203.600 167.176 M206.400 167.600 C 206.400 167.820,207.311 168.000,208.424 168.000 C 209.671 168.000,210.352 167.847,210.200 167.600 C 210.064 167.380,209.153 167.200,208.176 167.200 C 207.199 167.200,206.400 167.380,206.400 167.600 M187.200 168.400 C 187.200 168.620,187.639 168.800,188.176 168.800 C 188.713 168.800,189.264 168.620,189.400 168.400 C 189.544 168.167,189.137 168.000,188.424 168.000 C 187.751 168.000,187.200 168.180,187.200 168.400 M200.800 169.151 C 200.800 169.398,201.025 169.603,201.300 169.606 C 201.633 169.610,201.600 169.742,201.200 170.000 C 200.839 170.233,200.790 170.390,201.076 170.394 C 201.855 170.404,202.035 169.727,201.396 169.196 C 200.982 168.853,200.800 168.839,200.800 169.151 M210.400 170.629 C 210.400 171.021,211.522 172.000,211.971 172.000 C 212.607 172.000,212.492 171.558,211.700 170.957 C 210.956 170.392,210.400 170.252,210.400 170.629 M187.800 171.600 C 187.664 171.820,187.923 172.000,188.376 172.000 C 188.829 172.000,189.200 171.820,189.200 171.600 C 189.200 171.380,188.941 171.200,188.624 171.200 C 188.307 171.200,187.936 171.380,187.800 171.600 M181.632 172.251 C 181.601 172.685,182.711 175.601,182.905 175.599 C 182.957 175.599,183.020 175.044,183.044 174.366 C 183.069 173.684,182.956 173.347,182.793 173.612 C 182.600 173.923,182.351 173.690,182.080 172.945 C 181.851 172.315,181.649 172.003,181.632 172.251 M210.800 173.133 C 210.800 173.390,210.515 173.600,210.167 173.600 C 209.487 173.600,209.571 174.457,210.274 174.691 C 210.699 174.833,211.330 173.197,210.984 172.851 C 210.883 172.750,210.800 172.877,210.800 173.133 M190.015 174.182 C 189.749 174.503,189.664 174.980,189.827 175.243 C 190.039 175.587,190.273 175.515,190.661 174.984 C 191.610 173.687,191.026 172.963,190.015 174.182 M209.268 175.857 C 208.964 176.188,208.409 176.330,207.968 176.190 C 207.058 175.901,206.979 176.236,207.771 177.029 C 208.461 177.718,208.800 177.756,208.800 177.144 C 208.800 176.893,209.115 176.458,209.499 176.177 C 209.884 175.896,210.109 175.579,209.999 175.473 C 209.890 175.367,209.561 175.540,209.268 175.857 M192.500 176.293 C 191.738 176.557,191.903 177.347,192.842 177.933 C 193.305 178.222,193.564 178.266,193.418 178.030 C 193.272 177.793,193.388 177.597,193.676 177.594 C 194.032 177.590,194.059 177.494,193.760 177.294 C 193.518 177.132,193.248 176.802,193.160 176.560 C 193.072 176.318,192.775 176.198,192.500 176.293 M184.351 177.865 C 185.328 179.313,188.931 182.648,190.168 183.249 C 190.834 183.573,190.801 183.481,190.000 182.790 C 189.326 182.207,189.228 181.999,189.700 182.150 C 190.693 182.469,190.568 182.202,189.351 181.405 C 188.774 181.026,188.424 180.916,188.574 181.159 C 188.724 181.401,188.667 181.600,188.447 181.600 C 187.987 181.600,187.462 180.859,187.337 180.035 C 187.290 179.724,186.750 179.004,186.137 178.435 L 185.023 177.400 185.911 178.426 C 187.509 180.270,186.809 180.247,185.132 178.400 C 184.033 177.190,183.777 177.014,184.351 177.865 M204.800 178.200 C 204.800 178.530,204.980 178.800,205.200 178.800 C 205.420 178.800,205.600 178.530,205.600 178.200 C 205.600 177.870,205.420 177.600,205.200 177.600 C 204.980 177.600,204.800 177.870,204.800 178.200 M201.600 178.800 C 201.600 179.240,201.780 179.600,202.000 179.600 C 202.220 179.600,202.400 179.240,202.400 178.800 C 202.400 178.360,202.220 178.000,202.000 178.000 C 201.780 178.000,201.600 178.360,201.600 178.800 M195.200 178.817 C 195.200 179.171,196.223 179.600,197.066 179.600 C 197.396 179.600,197.592 179.375,197.500 179.100 C 197.324 178.571,195.200 178.309,195.200 178.817 M203.200 179.000 C 203.200 179.330,203.380 179.600,203.600 179.600 C 203.820 179.600,204.000 179.330,204.000 179.000 C 204.000 178.670,203.820 178.400,203.600 178.400 C 203.380 178.400,203.200 178.670,203.200 179.000 M198.400 179.885 C 198.400 180.470,198.488 180.495,199.367 180.157 C 200.266 179.813,200.152 179.238,199.200 179.310 C 198.760 179.343,198.400 179.602,198.400 179.885 M192.000 184.200 C 192.550 184.514,193.270 184.771,193.600 184.770 C 193.930 184.769,193.594 184.506,192.854 184.184 C 191.151 183.445,190.694 183.453,192.000 184.200 M194.939 185.307 C 195.193 185.477,196.278 185.502,197.351 185.363 C 198.734 185.184,199.222 185.240,199.028 185.555 C 198.853 185.837,199.127 186.000,199.776 186.000 C 200.918 186.000,201.199 185.241,200.100 185.128 C 198.069 184.918,194.540 185.041,194.939 185.307 M148.800 196.925 C 148.800 196.994,149.385 197.579,150.100 198.225 L 151.400 199.400 150.225 198.100 C 149.130 196.888,148.800 196.616,148.800 196.925 " stroke="none" fill="#858484" fill-rule="evenodd"></path><path id="path3" d="M174.000 105.091 C 171.850 105.907,166.289 110.454,163.890 113.359 C 162.721 114.773,163.195 114.407,165.433 112.167 C 168.668 108.927,171.315 106.875,173.977 105.544 C 175.313 104.876,175.327 104.587,174.000 105.091 M222.267 105.467 C 221.792 105.941,221.984 107.427,222.622 108.224 C 223.223 108.974,223.230 108.970,222.822 108.126 C 221.980 106.383,222.275 105.661,223.900 105.491 L 225.400 105.334 223.967 105.267 C 223.178 105.230,222.413 105.320,222.267 105.467 M175.878 108.205 C 175.512 108.972,175.295 109.600,175.396 109.600 C 175.670 109.600,176.884 107.151,176.701 106.968 C 176.614 106.881,176.244 107.438,175.878 108.205 M228.600 107.464 C 228.820 107.672,230.002 108.594,231.227 109.513 C 232.452 110.432,234.657 112.430,236.127 113.953 C 237.597 115.476,238.800 116.578,238.800 116.402 C 238.800 115.871,231.004 108.657,229.551 107.843 C 228.808 107.427,228.380 107.256,228.600 107.464 M226.735 113.215 C 228.350 114.744,230.240 116.376,230.935 116.840 C 231.631 117.304,231.390 116.999,230.400 116.161 C 229.410 115.324,227.628 113.685,226.439 112.519 C 225.251 111.354,224.171 110.408,224.039 110.417 C 223.908 110.426,225.121 111.685,226.735 113.215 M170.502 114.729 C 168.687 116.603,167.257 118.190,167.322 118.256 C 167.388 118.321,169.048 116.761,171.012 114.787 C 172.976 112.814,174.407 111.228,174.192 111.261 C 173.976 111.295,172.316 112.855,170.502 114.729 M161.458 116.438 C 161.025 117.057,160.626 117.207,159.936 117.012 C 159.211 116.807,159.135 116.842,159.600 117.168 C 160.532 117.820,161.053 117.684,161.763 116.600 C 162.554 115.393,162.289 115.252,161.458 116.438 M156.305 116.683 C 156.802 116.779,157.522 116.775,157.905 116.675 C 158.287 116.575,157.880 116.496,157.000 116.501 C 156.120 116.505,155.807 116.587,156.305 116.683 M241.505 116.683 C 242.002 116.779,242.722 116.775,243.105 116.675 C 243.487 116.575,243.080 116.496,242.200 116.501 C 241.320 116.505,241.007 116.587,241.505 116.683 M153.741 117.197 C 153.268 117.388,152.770 117.724,152.634 117.945 C 152.431 118.273,154.595 117.414,155.167 116.938 C 155.467 116.689,154.619 116.843,153.741 117.197 M245.629 117.591 C 247.287 118.467,247.738 118.956,248.829 121.059 C 249.316 121.998,249.527 122.209,249.368 121.600 C 248.843 119.586,245.956 116.738,244.520 116.818 C 244.344 116.827,244.843 117.175,245.629 117.591 M232.400 117.775 C 232.400 117.893,233.128 118.470,234.018 119.059 C 235.457 120.012,235.611 120.265,235.419 121.365 C 235.249 122.330,235.283 122.425,235.573 121.800 C 236.211 120.424,236.050 120.073,234.200 118.800 C 233.210 118.119,232.400 117.658,232.400 117.775 M150.746 119.879 C 149.982 121.107,149.800 121.949,149.800 124.255 L 149.800 127.109 147.310 128.981 C 144.510 131.086,139.392 136.440,138.243 138.465 C 137.320 140.093,137.729 139.682,139.899 136.800 C 141.913 134.126,145.047 131.050,148.000 128.849 L 150.200 127.209 150.200 124.239 C 150.200 121.754,150.353 121.063,151.135 120.003 C 151.650 119.307,151.985 118.652,151.881 118.548 C 151.777 118.443,151.266 119.042,150.746 119.879 M164.072 123.813 C 163.996 125.945,164.884 127.080,170.017 131.406 C 170.796 132.063,169.853 131.070,167.920 129.200 C 164.523 125.913,164.402 125.734,164.275 123.800 L 164.144 121.800 164.072 123.813 M156.416 122.981 C 155.650 123.903,156.081 124.985,157.269 125.123 C 158.060 125.215,158.400 125.031,158.599 124.404 C 159.089 122.859,157.420 121.770,156.416 122.981 M241.186 123.226 C 240.633 124.259,241.309 125.218,242.549 125.160 C 243.301 125.125,243.283 125.088,242.400 124.842 C 241.478 124.586,241.371 124.378,241.540 123.172 C 241.659 122.321,243.365 122.992,243.644 124.000 C 243.875 124.837,243.927 124.866,243.960 124.180 C 244.044 122.451,241.981 121.741,241.186 123.226 M158.200 123.805 C 158.200 124.325,157.888 124.644,157.300 124.728 C 156.408 124.855,155.995 123.739,156.680 123.053 C 157.211 122.522,158.200 123.012,158.200 123.805 M232.786 129.100 L 230.600 131.400 232.900 129.214 C 234.165 128.011,235.200 126.976,235.200 126.914 C 235.200 126.617,234.818 126.963,232.786 129.100 M252.940 129.103 C 253.096 129.356,253.791 129.967,254.484 130.460 C 255.177 130.954,255.617 131.150,255.460 130.897 C 255.304 130.644,254.609 130.033,253.916 129.540 C 253.223 129.046,252.783 128.850,252.940 129.103 M246.000 130.024 C 245.470 130.386,245.471 130.420,246.012 130.317 C 246.349 130.253,247.699 131.285,249.012 132.611 C 250.325 133.937,252.210 135.619,253.200 136.350 C 254.956 137.647,254.951 137.637,253.000 135.957 C 251.900 135.009,250.010 133.195,248.800 131.924 C 247.072 130.109,246.471 129.702,246.000 130.024 M152.000 131.200 C 151.530 131.860,151.218 132.400,151.307 132.400 C 151.395 132.400,151.949 131.860,152.537 131.200 C 153.125 130.540,153.437 130.000,153.230 130.000 C 153.024 130.000,152.470 130.540,152.000 131.200 M154.882 130.909 C 155.387 131.096,156.656 131.203,157.702 131.148 C 159.388 131.058,159.762 131.201,161.002 132.402 C 161.771 133.147,162.400 133.626,162.400 133.466 C 162.400 132.193,159.516 130.748,156.802 130.660 C 154.882 130.598,154.261 130.679,154.882 130.909 M235.984 135.900 C 233.231 138.705,230.444 141.627,229.790 142.393 C 229.135 143.159,231.290 141.026,234.578 137.652 C 237.866 134.277,240.926 131.367,241.378 131.184 C 241.908 130.969,241.985 130.842,241.594 130.825 C 241.261 130.811,238.736 133.095,235.984 135.900 M227.181 134.116 C 224.285 136.863,225.014 136.447,228.283 133.486 C 229.428 132.449,230.238 131.607,230.083 131.616 C 229.927 131.624,228.622 132.749,227.181 134.116 M258.322 133.800 C 259.532 135.010,260.623 136.000,260.747 136.000 C 260.871 136.000,259.995 135.010,258.800 133.800 C 257.605 132.590,256.514 131.600,256.375 131.600 C 256.235 131.600,257.112 132.590,258.322 133.800 M147.600 136.133 C 145.950 137.911,145.320 138.755,146.200 138.010 C 148.083 136.416,151.424 132.778,150.937 132.851 C 150.752 132.879,149.250 134.356,147.600 136.133 M172.000 133.029 C 172.000 133.311,172.417 133.679,174.500 135.233 C 176.263 136.549,175.768 135.834,173.800 134.221 C 172.810 133.410,172.000 132.874,172.000 133.029 M164.400 135.459 C 164.400 135.609,165.439 136.827,166.709 138.166 C 167.979 139.505,169.714 141.410,170.564 142.400 C 172.133 144.226,171.814 143.594,170.059 141.400 C 168.548 139.511,164.400 135.156,164.400 135.459 M177.069 137.309 C 179.187 139.013,179.805 139.321,178.200 137.873 C 177.320 137.080,176.451 136.423,176.269 136.415 C 176.087 136.407,176.447 136.809,177.069 137.309 M221.600 138.442 C 218.464 140.732,218.158 141.208,221.075 139.258 C 222.437 138.348,223.662 137.423,223.799 137.202 C 224.174 136.594,223.982 136.703,221.600 138.442 M262.778 139.074 C 263.617 140.810,263.344 141.311,261.700 141.058 C 260.312 140.843,260.283 140.858,261.313 141.251 C 263.381 142.039,264.360 140.702,262.978 138.976 C 262.377 138.226,262.370 138.230,262.778 139.074 M141.837 140.831 C 140.537 141.694,139.605 142.400,139.765 142.400 C 140.256 142.400,143.501 140.401,144.015 139.782 C 144.689 138.970,144.512 139.055,141.837 140.831 M181.000 140.201 C 182.174 141.219,184.400 142.572,184.400 142.267 C 184.400 142.182,183.365 141.449,182.100 140.637 C 180.547 139.640,180.190 139.499,181.000 140.201 M137.293 141.200 C 137.293 141.970,137.375 142.285,137.476 141.900 C 137.576 141.515,137.576 140.885,137.476 140.500 C 137.375 140.115,137.293 140.430,137.293 141.200 M214.296 143.350 C 212.375 144.531,211.838 145.089,213.400 144.281 C 214.654 143.633,216.345 142.426,216.000 142.425 C 215.890 142.425,215.123 142.841,214.296 143.350 M186.000 143.398 C 186.000 143.667,190.049 145.684,190.229 145.505 C 190.311 145.423,189.393 144.873,188.189 144.282 C 186.985 143.692,186.000 143.294,186.000 143.398 M195.800 144.360 C 194.920 144.496,196.434 144.606,199.165 144.605 C 202.264 144.603,203.541 144.498,202.565 144.324 C 200.732 143.998,198.052 144.013,195.800 144.360 M226.481 146.253 C 225.536 147.434,224.844 148.400,224.944 148.400 C 225.231 148.400,228.519 144.383,228.351 144.237 C 228.268 144.166,227.426 145.073,226.481 146.253 M173.869 146.858 C 174.931 148.320,176.032 149.850,176.315 150.258 C 176.598 150.666,176.452 150.280,175.991 149.400 C 175.529 148.520,174.429 146.990,173.545 146.000 C 172.039 144.313,172.059 144.367,173.869 146.858 M210.400 145.600 C 209.630 146.022,209.144 146.374,209.320 146.383 C 209.744 146.405,212.000 145.232,212.000 144.990 C 212.000 144.728,211.977 144.737,210.400 145.600 M195.502 148.034 C 175.578 152.730,177.124 182.879,197.416 185.369 C 199.171 185.585,199.061 185.518,196.459 184.792 C 186.304 181.960,180.991 174.699,181.744 164.680 C 182.584 153.495,193.037 146.453,205.600 148.611 C 206.150 148.705,205.880 148.530,205.000 148.222 C 203.217 147.597,197.808 147.490,195.502 148.034 M177.960 153.000 C 178.634 154.305,179.188 155.028,179.185 154.600 C 179.183 154.380,178.814 153.750,178.364 153.200 C 177.821 152.536,177.685 152.469,177.960 153.000 M220.614 154.635 C 220.241 155.204,220.005 155.738,220.089 155.822 C 220.173 155.907,220.558 155.441,220.944 154.788 C 221.806 153.328,221.548 153.209,220.614 154.635 M178.886 156.661 C 178.639 157.465,178.596 157.960,178.790 157.761 C 179.182 157.361,179.789 155.200,179.510 155.200 C 179.414 155.200,179.132 155.858,178.886 156.661 M200.800 158.600 C 200.800 159.590,200.980 160.400,201.200 160.400 C 201.420 160.400,201.600 159.590,201.600 158.600 C 201.600 157.610,201.420 156.800,201.200 156.800 C 200.980 156.800,200.800 157.610,200.800 158.600 M220.880 160.600 C 220.880 161.040,221.024 161.850,221.200 162.400 C 221.454 163.192,221.520 163.233,221.520 162.600 C 221.520 162.160,221.376 161.350,221.200 160.800 C 220.946 160.008,220.880 159.967,220.880 160.600 M177.000 162.800 C 176.845 163.928,176.802 164.936,176.906 165.039 C 177.009 165.142,177.216 164.300,177.367 163.167 C 177.517 162.034,177.559 161.026,177.461 160.928 C 177.363 160.829,177.155 161.672,177.000 162.800 M197.670 164.126 C 195.227 166.726,197.966 171.339,201.167 170.014 C 202.806 169.335,203.469 168.509,202.863 167.903 C 202.296 167.336,202.248 165.600,202.800 165.600 C 203.020 165.600,203.203 166.095,203.206 166.700 C 203.211 167.492,203.311 167.644,203.565 167.242 C 205.214 164.639,199.851 161.804,197.670 164.126 M199.342 164.469 C 198.871 164.698,198.298 165.271,198.069 165.742 C 197.694 166.517,197.652 166.527,197.627 165.844 C 197.597 165.004,198.675 164.018,199.600 164.040 C 199.979 164.049,199.885 164.207,199.342 164.469 M201.587 164.700 C 201.719 167.250,201.812 167.828,202.129 168.050 C 202.326 168.188,202.287 168.423,202.043 168.574 C 201.799 168.724,201.600 168.653,201.600 168.416 C 201.600 168.169,201.216 168.081,200.700 168.210 C 200.205 168.334,199.458 168.186,199.041 167.880 C 197.983 167.105,198.456 165.302,199.806 164.963 C 200.353 164.826,200.800 164.553,200.800 164.357 C 200.800 163.676,201.550 164.004,201.587 164.700 M221.720 166.400 C 221.720 167.610,221.795 168.105,221.887 167.500 C 221.978 166.895,221.978 165.905,221.887 165.300 C 221.795 164.695,221.720 165.190,221.720 166.400 M186.800 165.200 C 186.800 165.420,187.160 165.600,187.600 165.600 C 188.040 165.600,188.400 165.420,188.400 165.200 C 188.400 164.980,188.040 164.800,187.600 164.800 C 187.160 164.800,186.800 164.980,186.800 165.200 M176.893 168.600 C 176.894 169.260,177.032 170.340,177.200 171.000 C 177.623 172.663,177.642 171.026,177.223 169.000 C 176.945 167.655,176.892 167.591,176.893 168.600 M201.400 169.200 C 201.544 169.433,201.137 169.600,200.424 169.600 C 199.751 169.600,199.200 169.420,199.200 169.200 C 199.200 168.980,199.639 168.800,200.176 168.800 C 200.713 168.800,201.264 168.980,201.400 169.200 M221.000 170.800 C 220.848 171.491,220.814 172.147,220.924 172.257 C 221.034 172.367,221.248 171.891,221.400 171.200 C 221.552 170.509,221.586 169.853,221.476 169.743 C 221.366 169.633,221.152 170.109,221.000 170.800 M176.910 178.400 C 175.980 180.270,175.500 181.440,175.842 181.000 C 176.716 179.877,178.870 175.589,178.722 175.267 C 178.655 175.120,177.839 176.530,176.910 178.400 M220.815 177.800 C 220.817 178.020,221.186 178.650,221.636 179.200 C 222.179 179.864,222.315 179.931,222.040 179.400 C 221.366 178.095,220.812 177.372,220.815 177.800 M222.807 181.200 C 223.593 182.728,226.344 186.718,226.808 187.005 C 227.034 187.145,226.204 185.761,224.962 183.930 C 222.473 180.257,222.036 179.704,222.807 181.200 M171.375 187.068 C 170.759 187.876,170.459 188.411,170.709 188.256 C 171.221 187.940,172.953 185.600,172.675 185.600 C 172.576 185.600,171.991 186.261,171.375 187.068 M187.776 186.622 C 187.012 187.234,187.013 187.238,187.800 186.876 C 188.240 186.674,188.870 186.408,189.200 186.286 C 189.718 186.093,189.715 186.059,189.176 186.032 C 188.834 186.014,188.204 186.280,187.776 186.622 M184.726 188.361 C 183.719 188.999,182.762 189.737,182.600 190.001 C 182.365 190.381,186.109 188.012,186.767 187.364 C 187.245 186.894,186.352 187.330,184.726 188.361 M227.789 188.382 C 228.908 190.158,234.800 197.036,234.800 196.566 C 234.800 196.456,233.675 195.068,232.300 193.481 C 230.925 191.894,229.260 189.958,228.600 189.179 C 227.940 188.401,227.575 188.042,227.789 188.382 M195.823 188.453 C 196.470 188.592,197.990 188.705,199.200 188.705 C 200.410 188.705,201.930 188.592,202.577 188.453 C 203.225 188.314,201.705 188.200,199.200 188.200 C 196.695 188.200,195.175 188.314,195.823 188.453 M212.800 188.154 C 212.800 188.251,213.655 188.859,214.700 189.503 C 215.745 190.148,217.992 191.784,219.694 193.138 C 221.396 194.492,222.904 195.600,223.046 195.600 C 223.497 195.600,216.081 189.839,214.406 188.888 C 213.523 188.386,212.800 188.056,212.800 188.154 M259.400 189.227 C 258.793 189.509,258.913 189.542,259.901 189.367 C 261.001 189.172,261.260 189.280,261.576 190.068 C 261.781 190.581,261.961 190.790,261.975 190.533 C 262.060 188.959,261.066 188.455,259.400 189.227 M136.816 189.781 C 136.551 190.100,136.418 190.685,136.521 191.081 C 136.665 191.638,136.718 191.594,136.754 190.887 C 136.781 190.342,137.162 189.829,137.700 189.612 C 138.309 189.368,138.390 189.243,137.949 189.225 C 137.591 189.211,137.081 189.461,136.816 189.781 M166.561 193.100 C 161.099 199.588,159.224 201.195,157.032 201.267 C 155.200 201.328,155.154 201.350,156.562 201.495 C 157.421 201.583,158.501 201.560,158.962 201.443 C 159.830 201.223,169.351 190.800,168.684 190.800 C 168.581 190.800,167.626 191.835,166.561 193.100 M253.288 193.415 C 251.942 194.634,249.723 197.019,248.357 198.715 C 246.991 200.412,245.632 201.747,245.337 201.682 C 244.633 201.528,244.644 201.855,245.352 202.126 C 245.700 202.260,246.837 201.153,248.431 199.129 C 249.821 197.365,252.135 194.859,253.574 193.560 C 255.012 192.262,256.087 191.200,255.963 191.200 C 255.838 191.200,254.635 192.197,253.288 193.415 M261.021 191.933 C 260.883 192.369,259.873 193.926,258.777 195.391 C 257.682 196.857,256.973 197.941,257.201 197.799 C 258.257 197.146,261.845 191.712,261.469 191.336 C 261.361 191.228,261.160 191.497,261.021 191.933 M137.431 193.000 C 139.172 196.021,145.633 202.234,148.400 203.548 L 149.400 204.023 148.408 203.312 C 144.711 200.660,139.726 195.867,137.470 192.794 C 136.748 191.812,136.747 191.814,137.431 193.000 M177.985 193.229 L 176.600 194.458 178.100 193.381 C 179.426 192.430,179.857 192.000,179.485 192.000 C 179.422 192.000,178.747 192.553,177.985 193.229 M147.096 195.234 C 148.363 196.353,150.183 198.108,151.140 199.134 C 152.551 200.648,152.682 200.726,151.831 199.550 C 150.818 198.150,145.516 193.200,145.030 193.200 C 144.899 193.200,145.828 194.115,147.096 195.234 M175.000 195.467 C 172.326 197.788,170.347 199.679,170.470 199.795 C 170.541 199.862,171.950 198.679,173.600 197.166 C 176.484 194.523,177.478 193.315,175.000 195.467 M227.400 199.724 C 229.600 201.835,231.538 203.571,231.708 203.582 C 232.041 203.602,228.102 199.864,225.200 197.408 C 224.210 196.570,225.200 197.612,227.400 199.724 M255.260 199.480 C 254.743 200.015,254.397 200.530,254.492 200.625 C 254.586 200.719,255.085 200.348,255.600 199.800 C 256.115 199.252,256.461 198.737,256.368 198.655 C 256.276 198.574,255.777 198.945,255.260 199.480 M238.638 200.600 C 239.629 201.452,240.154 201.588,242.200 201.522 L 244.600 201.446 242.146 201.305 C 240.343 201.202,239.504 200.957,238.984 200.382 C 238.595 199.952,238.096 199.600,237.876 199.600 C 237.656 199.600,237.999 200.050,238.638 200.600 M167.578 202.300 L 166.200 203.800 167.700 202.422 C 168.525 201.663,169.200 200.988,169.200 200.922 C 169.200 200.616,168.862 200.904,167.578 202.300 M251.600 202.870 C 250.068 204.288,249.886 204.539,251.000 203.697 C 252.484 202.576,254.334 200.778,253.962 200.817 C 253.873 200.827,252.810 201.751,251.600 202.870 M164.879 205.211 C 164.121 206.171,163.984 206.752,164.105 208.489 L 164.252 210.600 164.326 208.422 C 164.386 206.662,164.606 206.028,165.475 205.122 C 166.066 204.505,166.381 204.010,166.175 204.022 C 165.969 204.034,165.385 204.569,164.879 205.211 M248.928 208.400 C 248.928 209.830,249.001 210.415,249.089 209.700 C 249.178 208.985,249.178 207.815,249.089 207.100 C 249.001 206.385,248.928 206.970,248.928 208.400 M234.508 207.737 C 234.458 208.430,234.580 209.589,234.780 210.312 C 235.128 211.573,235.058 211.693,233.071 213.252 C 228.722 216.664,222.760 224.305,222.841 226.362 C 222.877 227.285,222.916 227.255,223.193 226.087 C 223.825 223.419,228.986 216.941,232.975 213.810 C 235.572 211.771,235.579 211.758,235.122 210.104 C 234.910 209.336,234.842 208.289,234.970 207.778 C 235.098 207.267,235.067 206.766,234.901 206.663 C 234.736 206.561,234.559 207.045,234.508 207.737 M156.154 207.777 C 155.684 209.000,156.179 209.800,157.405 209.800 C 158.387 209.800,158.617 209.622,158.696 208.800 C 158.791 207.815,158.786 207.813,158.409 208.700 C 157.870 209.966,156.400 209.912,156.400 208.627 C 156.400 207.872,156.647 207.616,157.500 207.487 L 158.600 207.320 157.487 207.260 C 156.842 207.225,156.282 207.442,156.154 207.777 M241.067 207.467 C 240.920 207.613,240.803 207.928,240.806 208.167 C 240.809 208.405,240.984 208.330,241.194 208.000 C 241.510 207.504,241.716 207.487,242.388 207.903 C 242.835 208.180,243.200 208.245,243.200 208.046 C 243.200 207.414,241.564 206.969,241.067 207.467 M149.680 208.200 C 149.680 208.640,149.824 209.450,150.000 210.000 C 150.254 210.792,150.320 210.833,150.320 210.200 C 150.320 209.760,150.176 208.950,150.000 208.400 C 149.746 207.608,149.680 207.567,149.680 208.200 M240.963 209.690 C 241.020 209.971,241.487 210.200,242.000 210.200 C 242.513 210.200,242.980 209.971,243.037 209.690 C 243.094 209.410,243.049 209.365,242.937 209.590 C 242.825 209.816,242.403 210.000,242.000 210.000 C 241.597 210.000,241.175 209.816,241.063 209.590 C 240.952 209.365,240.907 209.410,240.963 209.690 M163.605 211.356 C 163.608 211.600,164.193 212.198,164.905 212.683 C 165.617 213.169,166.740 213.953,167.400 214.424 L 168.600 215.281 167.400 214.215 C 164.366 211.519,163.600 210.943,163.605 211.356 M152.400 213.959 C 154.170 215.517,156.414 216.175,158.348 215.702 C 159.667 215.379,159.574 215.349,157.339 215.369 C 155.185 215.388,154.635 215.225,152.939 214.059 L 151.000 212.726 152.400 213.959 M160.400 215.071 C 160.730 215.169,161.675 216.121,162.500 217.187 C 163.324 218.253,164.944 219.895,166.100 220.836 C 167.899 222.302,167.780 222.127,165.271 219.615 C 163.660 218.002,162.064 216.259,161.725 215.741 C 161.386 215.224,160.814 214.821,160.454 214.846 C 159.918 214.884,159.909 214.925,160.400 215.071 M237.042 216.500 C 236.117 217.929,236.089 218.041,236.867 217.200 C 237.376 216.650,238.130 215.885,238.541 215.500 C 239.103 214.973,239.147 214.800,238.715 214.800 C 238.400 214.800,237.647 215.565,237.042 216.500 M168.800 215.235 C 168.800 215.354,170.295 216.970,172.122 218.826 C 173.950 220.682,175.757 222.650,176.140 223.200 C 176.798 224.147,176.798 224.132,176.139 222.913 C 175.506 221.742,168.800 214.726,168.800 215.235 M242.200 215.600 C 241.111 215.877,241.093 215.907,242.000 215.925 C 242.550 215.935,243.360 215.789,243.800 215.600 C 244.786 215.176,243.866 215.176,242.200 215.600 M232.500 221.527 C 230.905 223.180,229.654 224.587,229.721 224.654 C 229.788 224.721,231.269 223.341,233.012 221.588 C 234.755 219.835,236.005 218.427,235.791 218.460 C 235.576 218.493,234.095 219.873,232.500 221.527 M168.544 222.709 C 168.860 223.221,171.200 224.953,171.200 224.675 C 171.200 224.576,170.539 223.991,169.732 223.375 C 168.924 222.759,168.389 222.459,168.544 222.709 M171.600 224.996 C 171.600 225.270,174.049 226.484,174.232 226.301 C 174.319 226.214,173.762 225.844,172.995 225.478 C 172.228 225.112,171.600 224.895,171.600 224.996 M228.000 225.600 C 227.450 226.030,227.197 226.386,227.438 226.391 C 227.679 226.396,228.202 226.040,228.600 225.600 C 229.512 224.592,229.288 224.592,228.000 225.600 M224.800 227.220 C 223.810 227.625,223.231 227.966,223.513 227.978 C 224.161 228.006,226.800 226.915,226.800 226.620 C 226.800 226.499,226.755 226.419,226.700 226.441 C 226.645 226.464,225.790 226.814,224.800 227.220 " stroke="none" fill="#a8a8a6" fill-rule="evenodd"></path><path id="path4" d="M175.400 105.472 C 175.840 105.593,176.349 105.897,176.530 106.146 C 176.749 106.446,176.806 106.396,176.699 106.000 C 176.610 105.670,176.101 105.367,175.569 105.326 C 174.805 105.268,174.769 105.299,175.400 105.472 M227.600 107.350 C 227.600 107.444,228.241 107.899,229.024 108.361 C 229.807 108.823,230.336 109.020,230.199 108.798 C 229.931 108.364,227.600 107.066,227.600 107.350 M168.181 109.700 L 166.600 111.400 168.300 109.819 C 169.881 108.348,170.184 108.000,169.881 108.000 C 169.816 108.000,169.051 108.765,168.181 109.700 M235.200 113.400 C 236.395 114.610,237.463 115.600,237.573 115.600 C 237.683 115.600,236.795 114.610,235.600 113.400 C 234.405 112.190,233.337 111.200,233.227 111.200 C 233.117 111.200,234.005 112.190,235.200 113.400 M164.175 113.700 L 163.000 115.000 164.300 113.825 C 165.015 113.179,165.600 112.594,165.600 112.525 C 165.600 112.216,165.270 112.488,164.175 113.700 M169.988 115.100 L 167.400 117.800 170.100 115.212 C 171.585 113.788,172.800 112.573,172.800 112.512 C 172.800 112.217,172.393 112.592,169.988 115.100 M161.525 116.800 C 160.946 117.460,160.624 118.000,160.809 118.000 C 160.994 118.000,161.530 117.460,162.000 116.800 C 162.470 116.140,162.792 115.600,162.716 115.600 C 162.640 115.600,162.104 116.140,161.525 116.800 M238.349 116.900 C 238.651 117.285,239.281 117.579,239.749 117.554 C 240.557 117.510,240.560 117.497,239.800 117.311 C 239.360 117.202,238.730 116.908,238.400 116.657 C 237.878 116.260,237.872 116.291,238.349 116.900 M240.833 116.947 C 240.925 117.028,241.879 117.188,242.954 117.304 C 244.149 117.432,244.693 117.378,244.354 117.163 C 243.835 116.835,240.471 116.628,240.833 116.947 M164.445 119.545 C 163.188 120.588,163.123 120.754,163.547 121.835 L 164.005 123.000 163.781 121.847 C 163.597 120.894,163.788 120.496,164.879 119.563 C 165.606 118.941,166.110 118.430,166.000 118.427 C 165.890 118.424,165.190 118.927,164.445 119.545 M248.973 124.502 C 248.947 127.330,248.955 127.355,249.313 125.519 C 249.519 124.461,249.531 123.194,249.340 122.622 C 249.088 121.868,248.993 122.355,248.973 124.502 M150.093 123.600 C 150.093 124.370,150.175 124.685,150.276 124.300 C 150.376 123.915,150.376 123.285,150.276 122.900 C 150.175 122.515,150.093 122.830,150.093 123.600 M158.432 123.100 C 158.913 123.872,158.913 124.128,158.432 124.900 C 157.919 125.724,157.928 125.754,158.536 125.251 C 158.901 124.949,159.200 124.386,159.200 124.000 C 159.200 123.614,158.901 123.051,158.536 122.749 C 157.928 122.246,157.919 122.276,158.432 123.100 M155.646 123.851 C 155.621 124.319,155.915 124.949,156.300 125.251 C 156.909 125.728,156.940 125.722,156.543 125.200 C 156.292 124.870,155.998 124.240,155.889 123.800 C 155.703 123.040,155.690 123.043,155.646 123.851 M232.589 129.700 L 229.800 132.600 232.700 129.811 C 234.295 128.277,235.600 126.972,235.600 126.911 C 235.600 126.617,235.180 127.006,232.589 129.700 M167.400 129.600 C 168.259 130.480,169.052 131.200,169.162 131.200 C 169.272 131.200,168.659 130.480,167.800 129.600 C 166.941 128.720,166.148 128.000,166.038 128.000 C 165.928 128.000,166.541 128.720,167.400 129.600 M146.575 130.100 L 145.400 131.400 146.700 130.225 C 147.912 129.130,148.184 128.800,147.875 128.800 C 147.806 128.800,147.221 129.385,146.575 130.100 M156.305 130.683 C 156.802 130.779,157.522 130.775,157.905 130.675 C 158.287 130.575,157.880 130.496,157.000 130.501 C 156.120 130.505,155.807 130.587,156.305 130.683 M250.000 133.000 C 251.195 134.210,252.263 135.200,252.373 135.200 C 252.483 135.200,251.595 134.210,250.400 133.000 C 249.205 131.790,248.137 130.800,248.027 130.800 C 247.917 130.800,248.805 131.790,250.000 133.000 M143.200 133.000 C 142.228 133.990,141.523 134.800,141.633 134.800 C 141.743 134.800,142.628 133.990,143.600 133.000 C 144.572 132.010,145.277 131.200,145.167 131.200 C 145.057 131.200,144.172 132.010,143.200 133.000 M169.600 131.325 C 169.600 131.394,170.185 131.979,170.900 132.625 L 172.200 133.800 171.025 132.500 C 169.930 131.288,169.600 131.016,169.600 131.325 M163.583 134.100 C 165.241 135.866,165.600 136.184,165.600 135.883 C 165.600 135.819,164.745 134.964,163.700 133.983 L 161.800 132.200 163.583 134.100 M147.186 136.300 L 145.000 138.600 147.300 136.414 C 149.437 134.382,149.783 134.000,149.486 134.000 C 149.424 134.000,148.389 135.035,147.186 136.300 M168.600 139.600 C 169.459 140.480,170.252 141.200,170.362 141.200 C 170.472 141.200,169.859 140.480,169.000 139.600 C 168.141 138.720,167.348 138.000,167.238 138.000 C 167.128 138.000,167.741 138.720,168.600 139.600 M230.981 140.500 L 229.400 142.200 231.100 140.619 C 232.681 139.148,232.984 138.800,232.681 138.800 C 232.616 138.800,231.851 139.565,230.981 140.500 M262.635 139.740 C 262.810 140.200,262.705 140.615,262.358 140.834 C 261.941 141.099,261.929 141.189,262.313 141.194 C 263.044 141.203,263.395 140.034,262.829 139.473 C 262.461 139.108,262.417 139.169,262.635 139.740 M185.200 143.379 C 185.200 143.489,185.740 143.859,186.400 144.200 C 187.060 144.541,187.600 144.731,187.600 144.621 C 187.600 144.511,187.060 144.141,186.400 143.800 C 185.740 143.459,185.200 143.269,185.200 143.379 M202.833 144.944 C 202.925 145.023,203.540 145.208,204.200 145.356 C 205.076 145.552,205.238 145.515,204.800 145.218 C 204.260 144.853,202.432 144.598,202.833 144.944 M206.054 145.787 C 206.732 146.465,209.105 147.101,209.621 146.742 C 210.119 146.395,210.116 146.364,209.600 146.518 C 209.270 146.616,208.393 146.449,207.651 146.148 C 206.258 145.582,205.729 145.462,206.054 145.787 M195.687 147.199 C 187.475 148.944,180.876 156.681,180.482 165.023 C 179.366 188.685,210.267 194.625,218.859 172.400 C 219.807 169.948,219.574 163.081,218.436 159.927 C 215.093 150.664,205.263 145.163,195.687 147.199 M204.323 147.670 C 205.355 147.929,206.740 148.486,207.400 148.909 C 208.515 149.624,208.529 149.662,207.600 149.439 C 207.050 149.307,205.880 149.111,205.000 149.002 L 203.400 148.804 205.200 149.340 C 224.662 155.137,220.829 183.973,200.480 184.846 C 199.803 184.875,199.661 184.961,200.100 185.076 C 201.864 185.537,200.622 186.021,198.300 185.778 C 188.047 184.706,180.800 176.617,180.800 166.247 C 180.800 154.371,192.905 144.811,204.323 147.670 M198.500 148.691 C 199.325 148.778,200.675 148.778,201.500 148.691 C 202.325 148.605,201.650 148.534,200.000 148.534 C 198.350 148.534,197.675 148.605,198.500 148.691 M194.600 149.200 L 193.800 149.544 194.600 149.544 C 195.040 149.544,195.760 149.389,196.200 149.200 L 197.000 148.856 196.200 148.856 C 195.760 148.856,195.040 149.011,194.600 149.200 M191.865 150.247 C 191.240 150.586,190.806 150.939,190.900 151.033 C 191.087 151.220,193.600 150.046,193.600 149.771 C 193.600 149.462,193.018 149.622,191.865 150.247 M187.334 153.700 C 185.990 155.075,184.685 156.650,184.434 157.200 L 183.977 158.200 184.665 157.200 C 185.043 156.650,186.521 155.075,187.948 153.700 C 189.375 152.325,190.371 151.200,190.160 151.200 C 189.949 151.200,188.677 152.325,187.334 153.700 M178.200 152.800 C 178.541 153.460,178.911 154.000,179.021 154.000 C 179.131 154.000,178.941 153.460,178.600 152.800 C 178.259 152.140,177.889 151.600,177.779 151.600 C 177.669 151.600,177.859 152.140,178.200 152.800 M197.237 152.523 C 197.037 152.723,196.311 152.931,195.624 152.986 C 194.937 153.040,193.964 153.470,193.462 153.942 C 192.959 154.414,192.290 154.800,191.974 154.800 C 191.658 154.800,190.897 155.430,190.283 156.200 C 189.669 156.970,188.896 157.600,188.565 157.600 C 188.235 157.600,187.994 157.825,188.030 158.100 C 188.159 159.095,187.987 159.582,187.257 160.284 C 186.808 160.717,186.495 161.612,186.467 162.548 C 186.438 163.515,186.160 164.288,185.725 164.605 C 185.137 165.036,185.112 165.212,185.565 165.758 C 185.891 166.151,186.008 166.862,185.864 167.582 C 185.725 168.274,185.864 169.218,186.200 169.865 C 186.515 170.472,186.677 171.352,186.559 171.821 C 186.404 172.440,186.636 172.863,187.410 173.370 C 188.144 173.851,188.413 174.309,188.273 174.842 C 188.126 175.404,188.394 175.783,189.253 176.227 C 189.903 176.563,190.638 177.284,190.886 177.830 C 191.135 178.375,191.532 178.751,191.769 178.665 C 192.454 178.418,194.400 179.561,194.400 180.210 C 194.400 180.861,195.025 181.007,195.377 180.438 C 195.664 179.973,197.205 180.344,198.062 181.084 C 198.613 181.559,198.863 181.567,199.562 181.131 C 200.255 180.698,200.550 180.701,201.271 181.151 C 202.029 181.625,202.207 181.605,202.655 180.993 C 202.996 180.525,203.704 180.291,204.774 180.291 C 206.020 180.291,206.518 180.080,206.999 179.345 C 207.345 178.817,208.014 178.400,208.514 178.400 C 209.060 178.400,209.565 178.048,209.805 177.500 C 210.022 177.005,210.613 176.420,211.118 176.200 C 211.731 175.933,212.177 175.244,212.459 174.127 C 212.691 173.207,213.133 172.358,213.441 172.240 C 213.757 172.118,214.000 171.474,214.000 170.757 C 214.000 170.012,214.289 169.275,214.700 168.971 C 215.261 168.557,215.301 168.353,214.900 167.947 C 214.265 167.303,214.253 165.507,214.879 164.881 C 215.250 164.510,215.195 164.285,214.635 163.875 C 214.239 163.585,213.887 162.814,213.854 162.162 C 213.821 161.509,213.391 160.542,212.897 160.012 C 212.404 159.483,212.000 158.677,212.000 158.222 C 212.000 157.698,211.583 157.211,210.861 156.891 C 210.235 156.614,209.519 155.940,209.270 155.394 C 209.005 154.812,208.481 154.400,208.009 154.400 C 207.564 154.400,206.852 154.052,206.426 153.626 C 205.989 153.189,205.143 152.867,204.484 152.885 C 203.841 152.904,203.083 152.775,202.798 152.599 C 202.065 152.146,197.674 152.086,197.237 152.523 M198.629 153.371 C 198.943 153.686,199.200 154.209,199.200 154.534 C 199.200 154.928,199.467 155.055,200.000 154.916 C 200.614 154.755,200.800 154.904,200.800 155.553 C 200.800 156.545,201.297 156.647,202.000 155.800 C 202.274 155.470,202.752 155.200,203.063 155.200 C 203.689 155.200,203.426 159.047,202.750 159.780 C 202.233 160.341,202.324 161.181,202.971 161.829 C 203.768 162.626,203.759 162.632,205.374 160.383 C 206.959 158.177,207.801 157.639,208.527 158.370 C 208.892 158.736,208.519 159.305,206.900 160.851 C 205.745 161.954,204.800 162.934,204.800 163.028 C 204.800 163.585,205.911 162.994,207.507 161.589 C 209.501 159.834,210.200 159.742,210.200 161.233 C 210.200 161.951,209.951 162.235,209.235 162.336 C 208.192 162.484,206.956 163.489,207.343 163.876 C 207.474 164.007,207.810 163.929,208.090 163.703 C 209.130 162.865,211.181 162.686,211.459 163.409 C 211.607 163.795,211.479 164.231,211.158 164.434 C 210.768 164.681,210.991 164.790,211.900 164.794 C 212.615 164.797,213.202 164.935,213.205 165.100 C 213.208 165.265,213.319 165.805,213.452 166.300 C 213.632 166.973,213.523 167.200,213.020 167.200 C 212.528 167.200,212.415 166.984,212.600 166.400 C 212.771 165.861,212.672 165.600,212.295 165.600 C 211.973 165.600,211.750 165.981,211.768 166.500 C 211.794 167.237,211.618 167.375,210.800 167.261 L 209.800 167.122 210.700 168.087 C 212.204 169.699,211.898 170.142,209.500 169.827 C 208.345 169.675,207.229 169.382,207.020 169.175 C 206.494 168.656,205.200 168.704,205.200 169.243 C 205.200 169.486,205.479 169.578,205.821 169.447 C 206.162 169.316,206.343 169.368,206.223 169.563 C 205.955 169.997,206.930 170.400,208.249 170.400 C 209.395 170.400,211.008 171.740,210.619 172.369 C 210.295 172.894,209.100 172.934,208.580 172.438 C 208.153 172.031,205.278 170.400,204.988 170.400 C 204.399 170.400,204.957 171.143,205.900 171.614 C 207.574 172.450,208.800 173.657,208.800 174.470 C 208.800 175.736,207.724 175.270,205.637 173.100 C 204.526 171.945,203.613 171.233,203.609 171.518 C 203.604 171.803,204.081 172.517,204.669 173.105 C 205.922 174.358,206.845 176.004,206.556 176.471 C 206.168 177.100,204.407 176.848,204.655 176.200 C 204.782 175.870,204.686 175.600,204.443 175.600 C 204.199 175.600,204.000 175.313,204.000 174.962 C 204.000 174.192,202.497 172.000,201.969 172.000 C 201.638 172.000,202.253 173.467,202.808 174.000 C 204.023 175.167,204.300 178.000,203.200 178.000 C 202.684 178.000,202.400 177.733,202.400 177.249 C 202.400 175.767,201.063 173.249,200.880 174.387 C 200.793 174.930,200.919 175.440,201.161 175.520 C 202.304 175.901,201.433 178.400,200.157 178.400 C 199.270 178.400,199.200 178.247,199.194 176.300 C 199.189 174.797,199.078 174.370,198.800 174.800 C 198.587 175.130,198.409 175.974,198.406 176.676 C 198.399 178.203,197.971 178.560,196.999 177.849 C 196.322 177.354,196.319 177.246,196.940 176.000 C 197.665 174.546,197.844 172.202,197.200 172.600 C 196.980 172.736,196.800 173.276,196.800 173.800 C 196.800 174.324,196.620 174.864,196.400 175.000 C 196.180 175.136,196.000 175.577,196.000 175.981 C 196.000 176.855,194.841 177.401,194.246 176.806 C 193.791 176.351,194.810 174.054,196.100 172.625 C 196.866 171.776,197.003 171.200,196.438 171.200 C 196.238 171.200,195.428 172.100,194.638 173.200 C 193.736 174.455,192.903 175.200,192.401 175.200 C 191.110 175.200,191.470 174.261,193.440 172.491 C 194.451 171.582,195.215 170.646,195.137 170.410 C 195.058 170.175,194.366 170.591,193.597 171.335 C 191.532 173.334,188.737 173.702,189.915 171.819 C 190.448 170.967,190.308 170.400,189.565 170.400 C 189.067 170.400,188.800 170.121,188.800 169.600 C 188.800 169.067,188.533 168.800,188.000 168.800 C 187.560 168.800,187.200 168.620,187.200 168.400 C 187.200 168.180,187.695 167.997,188.300 167.994 C 189.064 167.990,189.235 167.883,188.861 167.646 C 187.852 167.007,188.516 165.814,190.005 165.588 L 191.400 165.377 190.100 165.098 C 188.318 164.717,188.219 163.200,189.976 163.200 C 190.623 163.200,191.264 163.380,191.400 163.600 C 191.791 164.232,192.400 164.065,192.143 163.397 C 192.016 163.065,191.495 162.688,190.985 162.560 C 189.874 162.282,189.414 161.306,190.038 160.554 C 190.414 160.101,190.678 160.143,191.607 160.805 C 192.221 161.242,192.838 161.600,192.978 161.600 C 193.119 161.600,193.620 161.960,194.092 162.400 C 194.564 162.840,195.187 163.200,195.475 163.200 C 196.515 163.200,195.965 162.508,194.207 161.604 C 191.897 160.416,190.953 159.103,191.865 158.346 C 192.415 157.890,192.791 158.130,194.650 160.128 C 196.117 161.704,196.798 162.209,196.793 161.719 C 196.790 161.323,196.070 160.293,195.193 159.430 C 193.590 157.850,193.258 157.059,194.004 156.598 C 194.808 156.101,196.000 156.835,196.000 157.827 C 196.000 158.362,196.180 158.800,196.400 158.800 C 196.620 158.800,196.800 159.070,196.800 159.400 C 196.800 159.730,196.980 160.000,197.200 160.000 C 197.755 160.000,197.700 159.484,197.002 158.146 C 196.028 156.278,196.197 155.068,197.400 155.298 C 198.177 155.446,198.400 155.323,198.400 154.745 C 198.400 153.947,197.807 153.742,197.400 154.400 C 197.018 155.018,196.000 154.873,196.000 154.200 C 196.000 153.867,196.356 153.600,196.800 153.600 C 197.240 153.600,197.600 153.420,197.600 153.200 C 197.600 152.642,197.958 152.701,198.629 153.371 M200.800 153.800 C 200.800 154.130,200.631 154.400,200.424 154.400 C 199.919 154.400,199.558 153.775,199.878 153.456 C 200.328 153.005,200.800 153.181,200.800 153.800 M202.400 154.000 C 202.400 154.440,202.220 154.800,202.000 154.800 C 201.780 154.800,201.600 154.440,201.600 154.000 C 201.600 153.560,201.780 153.200,202.000 153.200 C 202.220 153.200,202.400 153.560,202.400 154.000 M204.000 154.200 C 204.000 154.530,203.820 154.800,203.600 154.800 C 203.380 154.800,203.200 154.530,203.200 154.200 C 203.200 153.870,203.380 153.600,203.600 153.600 C 203.820 153.600,204.000 153.870,204.000 154.200 M196.000 155.571 C 196.000 156.162,195.319 156.111,195.033 155.500 C 194.847 155.100,194.753 155.100,194.567 155.500 C 194.438 155.775,193.988 156.000,193.567 156.000 C 193.145 156.000,192.799 156.225,192.799 156.500 C 192.798 156.775,192.257 157.360,191.597 157.800 C 190.936 158.240,190.481 158.825,190.585 159.100 C 190.690 159.375,190.511 159.600,190.187 159.600 C 189.864 159.600,189.600 159.870,189.600 160.200 C 189.600 160.530,189.330 160.800,189.000 160.800 C 188.115 160.800,188.268 160.095,189.400 158.964 C 189.950 158.414,190.400 157.702,190.400 157.382 C 190.400 157.062,190.670 156.800,191.000 156.800 C 191.330 156.800,191.600 156.620,191.600 156.400 C 191.600 156.180,191.855 156.000,192.167 156.000 C 192.478 156.000,192.793 155.865,192.867 155.700 C 193.524 154.221,196.000 154.119,196.000 155.571 M205.600 154.800 C 205.600 155.020,205.420 155.200,205.200 155.200 C 204.980 155.200,204.800 155.470,204.800 155.800 C 204.800 156.130,204.935 156.379,205.100 156.353 C 206.595 156.117,206.859 157.357,205.600 158.708 C 205.160 159.180,204.800 159.767,204.800 160.012 C 204.800 160.616,203.623 161.756,203.316 161.449 C 203.181 161.314,203.279 160.744,203.535 160.183 C 203.791 159.622,204.000 158.736,204.000 158.215 C 204.000 157.693,204.225 157.162,204.500 157.033 C 204.882 156.855,204.887 156.747,204.521 156.574 C 204.160 156.403,204.151 156.106,204.485 155.374 C 204.930 154.396,205.600 154.052,205.600 154.800 M208.105 155.761 C 208.238 155.629,208.247 155.899,208.126 156.360 C 207.881 157.299,207.200 157.507,207.200 156.643 C 207.200 156.336,206.919 155.978,206.575 155.846 C 206.231 155.714,206.069 155.413,206.214 155.177 C 206.391 154.890,206.709 154.956,207.172 155.375 C 207.553 155.720,207.973 155.894,208.105 155.761 M198.641 156.107 C 198.459 156.495,198.431 157.305,198.579 157.907 C 198.727 158.508,198.948 159.495,199.070 160.100 C 199.191 160.705,199.450 161.200,199.645 161.200 C 200.116 161.200,200.101 159.862,199.625 159.380 C 199.419 159.171,199.188 158.190,199.112 157.200 C 199.010 155.879,198.885 155.588,198.641 156.107 M219.350 156.187 C 219.226 156.510,219.299 157.275,219.513 157.887 C 219.872 158.917,219.897 158.873,219.851 157.302 C 219.796 155.477,219.702 155.268,219.350 156.187 M209.530 157.293 C 209.459 157.443,209.742 157.816,210.161 158.122 C 210.580 158.429,210.794 158.886,210.638 159.139 C 210.229 159.800,209.181 159.714,209.440 159.040 C 209.558 158.733,209.462 158.362,209.227 158.217 C 208.669 157.872,208.671 156.690,209.230 156.877 C 209.466 156.956,209.601 157.143,209.530 157.293 M212.230 161.018 C 212.373 161.783,212.650 162.507,212.845 162.628 C 213.480 163.020,213.257 164.397,212.600 164.145 C 212.270 164.018,212.000 163.574,212.000 163.157 C 212.000 162.741,211.730 162.400,211.400 162.400 C 211.070 162.400,210.800 162.220,210.800 162.000 C 210.800 161.780,211.002 161.600,211.249 161.600 C 211.561 161.600,211.547 161.418,211.204 161.005 C 210.657 160.346,210.969 159.010,211.582 159.389 C 211.795 159.520,212.086 160.254,212.230 161.018 M220.258 160.400 C 220.575 162.125,220.802 162.451,220.794 161.167 C 220.791 160.635,220.611 159.930,220.394 159.600 C 220.118 159.178,220.077 159.415,220.258 160.400 M182.600 160.800 C 182.450 161.273,182.417 161.750,182.527 161.860 C 182.637 161.970,182.850 161.673,183.000 161.200 C 183.150 160.727,183.183 160.250,183.073 160.140 C 182.963 160.030,182.750 160.327,182.600 160.800 M189.200 162.000 C 189.200 162.220,189.041 162.400,188.847 162.400 C 188.652 162.400,188.399 162.760,188.284 163.200 C 188.046 164.111,187.200 164.293,187.200 163.433 C 187.200 162.330,187.695 161.600,188.443 161.600 C 188.859 161.600,189.200 161.780,189.200 162.000 M198.305 163.026 C 196.530 163.989,195.499 166.590,196.356 167.942 C 196.578 168.292,196.685 167.910,196.657 166.867 C 196.580 163.928,199.192 162.189,201.815 163.434 C 202.577 163.795,203.203 164.116,203.206 164.146 C 203.283 164.842,204.370 167.184,204.382 166.680 C 204.453 163.787,200.871 161.634,198.305 163.026 M221.103 164.918 C 221.315 167.589,220.908 170.270,219.729 173.963 C 219.296 175.322,219.276 175.827,219.642 176.163 C 219.988 176.481,220.047 176.475,219.860 176.141 C 219.719 175.888,219.858 174.808,220.169 173.741 C 221.384 169.571,221.599 168.431,221.560 166.354 C 221.538 165.169,221.378 163.750,221.203 163.200 C 221.019 162.618,220.976 163.336,221.103 164.918 M181.830 164.179 C 181.592 165.451,181.877 169.181,182.242 169.567 C 182.329 169.658,182.400 168.173,182.400 166.267 C 182.400 162.552,182.243 161.978,181.830 164.179 M177.340 166.400 C 177.340 168.270,177.409 169.035,177.493 168.100 C 177.577 167.165,177.577 165.635,177.493 164.700 C 177.409 163.765,177.340 164.530,177.340 166.400 M193.200 163.557 C 193.200 163.754,193.485 164.024,193.833 164.157 C 194.811 164.533,194.908 164.451,194.257 163.800 C 193.577 163.120,193.200 163.033,193.200 163.557 M205.200 164.400 C 205.200 164.620,205.560 164.800,206.000 164.800 C 206.440 164.800,206.800 164.620,206.800 164.400 C 206.800 164.180,206.440 164.000,206.000 164.000 C 205.560 164.000,205.200 164.180,205.200 164.400 M188.800 165.153 C 188.800 165.578,187.198 166.046,186.731 165.757 C 186.005 165.308,186.467 164.800,187.600 164.800 C 188.260 164.800,188.800 164.959,188.800 165.153 M208.600 165.200 C 208.464 165.420,208.723 165.600,209.176 165.600 C 209.629 165.600,210.000 165.420,210.000 165.200 C 210.000 164.980,209.741 164.800,209.424 164.800 C 209.107 164.800,208.736 164.980,208.600 165.200 M205.600 166.000 C 205.600 166.220,205.949 166.400,206.376 166.400 C 206.803 166.400,207.264 166.220,207.400 166.000 C 207.540 165.773,207.204 165.600,206.624 165.600 C 206.061 165.600,205.600 165.780,205.600 166.000 M202.400 166.576 C 202.400 166.893,202.580 167.264,202.800 167.400 C 203.020 167.536,203.200 167.277,203.200 166.824 C 203.200 166.371,203.020 166.000,202.800 166.000 C 202.580 166.000,202.400 166.259,202.400 166.576 M188.000 166.800 C 188.000 167.020,187.730 167.200,187.400 167.200 C 187.070 167.200,186.800 167.020,186.800 166.800 C 186.800 166.580,187.070 166.400,187.400 166.400 C 187.730 166.400,188.000 166.580,188.000 166.800 M191.200 167.600 C 191.200 167.820,190.851 168.000,190.424 168.000 C 189.997 168.000,189.536 168.180,189.400 168.400 C 189.260 168.626,189.588 168.800,190.153 168.800 C 190.703 168.800,191.264 168.620,191.400 168.400 C 191.536 168.180,191.986 168.000,192.400 168.000 C 192.814 168.000,193.264 167.820,193.400 167.600 C 193.544 167.367,193.137 167.200,192.424 167.200 C 191.751 167.200,191.200 167.380,191.200 167.600 M203.632 167.919 C 203.614 168.205,203.124 168.880,202.542 169.419 C 201.959 169.959,201.658 170.400,201.872 170.400 C 202.542 170.400,204.096 168.483,203.874 167.929 C 203.705 167.505,203.657 167.503,203.632 167.919 M213.600 168.400 C 213.600 168.620,213.240 168.800,212.800 168.800 C 212.360 168.800,212.000 168.620,212.000 168.400 C 212.000 168.180,212.360 168.000,212.800 168.000 C 213.240 168.000,213.600 168.180,213.600 168.400 M192.800 169.105 C 192.800 169.273,192.407 169.588,191.926 169.805 C 191.445 170.022,190.985 170.411,190.903 170.670 C 190.818 170.938,191.532 170.766,192.567 170.270 C 194.512 169.337,194.889 168.800,193.600 168.800 C 193.160 168.800,192.800 168.937,192.800 169.105 M197.722 169.763 C 198.493 170.475,199.245 170.781,200.122 170.740 L 201.400 170.680 200.213 170.505 C 199.560 170.409,198.480 169.969,197.813 169.528 L 196.600 168.727 197.722 169.763 M199.600 169.200 C 199.600 169.420,199.870 169.600,200.200 169.600 C 200.530 169.600,200.800 169.420,200.800 169.200 C 200.800 168.980,200.530 168.800,200.200 168.800 C 199.870 168.800,199.600 168.980,199.600 169.200 M188.400 170.000 C 188.400 170.220,188.130 170.400,187.800 170.400 C 187.470 170.400,187.200 170.220,187.200 170.000 C 187.200 169.780,187.470 169.600,187.800 169.600 C 188.130 169.600,188.400 169.780,188.400 170.000 M213.200 170.000 C 213.200 170.220,212.930 170.400,212.600 170.400 C 212.270 170.400,212.000 170.220,212.000 170.000 C 212.000 169.780,212.270 169.600,212.600 169.600 C 212.930 169.600,213.200 169.780,213.200 170.000 M211.700 170.957 C 212.085 171.249,212.400 171.603,212.400 171.744 C 212.400 172.201,211.558 172.015,210.971 171.429 C 209.912 170.369,210.460 170.015,211.700 170.957 M177.656 171.200 C 177.656 171.530,177.811 172.160,178.000 172.600 C 178.217 173.104,178.344 173.178,178.344 172.800 C 178.344 172.470,178.189 171.840,178.000 171.400 C 177.783 170.896,177.656 170.822,177.656 171.200 M182.587 171.682 C 182.896 173.206,183.588 174.945,183.802 174.732 C 183.900 174.633,183.618 173.663,183.174 172.576 C 182.731 171.489,182.466 171.087,182.587 171.682 M189.200 171.600 C 189.200 171.820,188.829 172.000,188.376 172.000 C 187.923 172.000,187.664 171.820,187.800 171.600 C 187.936 171.380,188.307 171.200,188.624 171.200 C 188.941 171.200,189.200 171.380,189.200 171.600 M189.600 173.200 C 189.600 173.420,189.330 173.600,189.000 173.600 C 188.670 173.600,188.400 173.420,188.400 173.200 C 188.400 172.980,188.670 172.800,189.000 172.800 C 189.330 172.800,189.600 172.980,189.600 173.200 M212.000 173.200 C 212.000 173.420,211.730 173.600,211.400 173.600 C 211.070 173.600,210.800 173.885,210.800 174.233 C 210.800 174.582,210.586 174.795,210.325 174.708 C 209.583 174.461,209.460 173.600,210.167 173.600 C 210.515 173.600,210.800 173.420,210.800 173.200 C 210.800 172.980,211.070 172.800,211.400 172.800 C 211.730 172.800,212.000 172.980,212.000 173.200 M191.000 174.400 C 190.854 174.859,190.928 175.200,191.173 175.200 C 191.408 175.200,191.600 175.470,191.600 175.800 C 191.600 176.674,190.676 176.534,190.073 175.569 C 189.672 174.927,189.662 174.608,190.026 174.169 C 190.716 173.337,191.294 173.474,191.000 174.400 M178.570 175.451 C 178.551 176.296,178.664 176.626,178.863 176.311 C 179.273 175.665,179.294 174.505,178.900 174.263 C 178.735 174.162,178.586 174.697,178.570 175.451 M184.673 176.308 C 186.317 179.342,190.789 182.922,194.000 183.775 C 194.550 183.921,193.834 183.461,192.408 182.753 C 189.984 181.550,186.382 178.404,184.675 176.000 C 183.995 175.041,183.994 175.054,184.673 176.308 M210.000 175.613 C 210.000 175.839,209.730 176.129,209.400 176.255 C 209.070 176.382,208.800 176.736,208.800 177.043 C 208.800 177.753,208.492 177.749,207.771 177.029 C 206.970 176.228,207.060 175.902,208.000 176.200 C 208.568 176.380,208.800 176.272,208.800 175.827 C 208.800 175.482,209.070 175.200,209.400 175.200 C 209.730 175.200,210.000 175.386,210.000 175.613 M193.964 177.467 C 194.313 177.724,194.464 178.070,194.299 178.235 C 193.894 178.639,192.000 177.593,192.000 176.966 C 192.000 176.318,192.950 175.987,193.165 176.560 C 193.256 176.802,193.615 177.210,193.964 177.467 M207.200 177.800 C 207.200 178.130,206.930 178.400,206.600 178.400 C 205.975 178.400,205.806 177.927,206.267 177.467 C 206.727 177.006,207.200 177.175,207.200 177.800 M196.000 177.953 C 196.000 178.148,196.360 178.401,196.800 178.516 C 197.711 178.754,197.893 179.600,197.033 179.600 C 195.930 179.600,195.200 179.105,195.200 178.357 C 195.200 177.941,195.380 177.600,195.600 177.600 C 195.820 177.600,196.000 177.759,196.000 177.953 M205.600 178.200 C 205.600 178.530,205.420 178.800,205.200 178.800 C 204.980 178.800,204.800 178.530,204.800 178.200 C 204.800 177.870,204.980 177.600,205.200 177.600 C 205.420 177.600,205.600 177.870,205.600 178.200 M202.400 178.800 C 202.400 179.240,202.220 179.600,202.000 179.600 C 201.780 179.600,201.600 179.240,201.600 178.800 C 201.600 178.360,201.780 178.000,202.000 178.000 C 202.220 178.000,202.400 178.360,202.400 178.800 M199.200 178.800 C 199.200 179.020,199.560 179.200,200.000 179.200 C 200.440 179.200,200.800 179.380,200.800 179.600 C 200.800 179.820,200.545 180.000,200.233 180.000 C 199.921 180.000,199.381 180.109,199.033 180.243 C 198.555 180.426,198.400 180.229,198.400 179.443 C 198.400 178.869,198.580 178.400,198.800 178.400 C 199.020 178.400,199.200 178.580,199.200 178.800 M204.000 179.000 C 204.000 179.330,203.820 179.600,203.600 179.600 C 203.380 179.600,203.200 179.330,203.200 179.000 C 203.200 178.670,203.380 178.400,203.600 178.400 C 203.820 178.400,204.000 178.670,204.000 179.000 M196.200 184.400 C 196.640 184.589,197.360 184.744,197.800 184.744 L 198.600 184.744 197.800 184.400 C 197.360 184.211,196.640 184.056,196.200 184.056 L 195.400 184.056 196.200 184.400 M188.106 185.926 C 187.812 186.113,188.175 186.240,189.000 186.240 C 189.825 186.240,190.188 186.113,189.894 185.926 C 189.622 185.753,189.220 185.612,189.000 185.612 C 188.780 185.612,188.378 185.753,188.106 185.926 M208.200 186.027 C 207.567 186.321,207.652 186.354,208.608 186.187 C 209.354 186.057,210.118 186.206,210.608 186.576 C 211.044 186.905,211.580 187.179,211.800 187.185 C 212.020 187.190,211.660 186.837,211.000 186.400 C 209.676 185.523,209.374 185.483,208.200 186.027 M194.000 187.582 C 194.330 187.805,194.945 187.991,195.367 187.994 C 196.390 188.002,196.071 187.773,194.600 187.444 C 193.724 187.248,193.562 187.285,194.000 187.582 M202.600 187.600 L 201.000 187.886 202.400 187.937 C 203.170 187.965,204.070 187.813,204.400 187.600 C 205.055 187.177,204.962 187.177,202.600 187.600 M137.067 189.867 C 136.686 190.247,136.737 191.514,137.142 191.764 C 137.330 191.881,137.394 191.503,137.284 190.926 C 137.092 189.923,137.144 189.888,138.442 190.138 C 139.398 190.322,139.623 190.283,139.200 190.006 C 138.505 189.550,137.452 189.481,137.067 189.867 M166.575 193.700 L 165.400 195.000 166.700 193.825 C 167.415 193.179,168.000 192.594,168.000 192.525 C 168.000 192.216,167.670 192.488,166.575 193.700 M147.400 196.000 C 148.259 196.880,149.052 197.600,149.162 197.600 C 149.272 197.600,148.659 196.880,147.800 196.000 C 146.941 195.120,146.148 194.400,146.038 194.400 C 145.928 194.400,146.541 195.120,147.400 196.000 M141.600 197.400 C 143.017 198.830,144.267 200.000,144.377 200.000 C 144.487 200.000,143.417 198.830,142.000 197.400 C 140.583 195.970,139.333 194.800,139.223 194.800 C 139.113 194.800,140.183 195.970,141.600 197.400 M173.375 196.500 L 172.200 197.800 173.500 196.625 C 174.712 195.530,174.984 195.200,174.675 195.200 C 174.606 195.200,174.021 195.785,173.375 196.500 M223.200 195.325 C 223.200 195.394,223.785 195.979,224.500 196.625 L 225.800 197.800 224.625 196.500 C 223.530 195.288,223.200 195.016,223.200 195.325 M163.578 197.100 L 162.200 198.600 163.700 197.222 C 164.525 196.463,165.200 195.788,165.200 195.722 C 165.200 195.416,164.862 195.704,163.578 197.100 M236.000 198.600 C 237.195 199.810,238.263 200.800,238.373 200.800 C 238.483 200.800,237.595 199.810,236.400 198.600 C 235.205 197.390,234.137 196.400,234.027 196.400 C 233.917 196.400,234.805 197.390,236.000 198.600 M254.800 199.400 C 253.161 201.050,251.910 202.400,252.020 202.400 C 252.130 202.400,253.561 201.050,255.200 199.400 C 256.839 197.750,258.090 196.400,257.980 196.400 C 257.870 196.400,256.439 197.750,254.800 199.400 M227.400 199.200 C 228.259 200.080,229.052 200.800,229.162 200.800 C 229.272 200.800,228.659 200.080,227.800 199.200 C 226.941 198.320,226.148 197.600,226.038 197.600 C 225.928 197.600,226.541 198.320,227.400 199.200 M149.600 198.125 C 149.600 198.194,150.185 198.779,150.900 199.425 L 152.200 200.600 151.025 199.300 C 149.930 198.088,149.600 197.816,149.600 198.125 M160.778 200.300 L 159.400 201.800 160.900 200.422 C 161.725 199.663,162.400 198.988,162.400 198.922 C 162.400 198.616,162.062 198.904,160.778 200.300 M167.787 201.700 L 165.400 204.200 167.900 201.813 C 170.222 199.595,170.583 199.200,170.287 199.200 C 170.226 199.200,169.101 200.325,167.787 201.700 M233.000 204.400 C 234.083 205.500,235.060 206.400,235.170 206.400 C 235.280 206.400,234.483 205.500,233.400 204.400 C 232.317 203.300,231.340 202.400,231.230 202.400 C 231.120 202.400,231.917 203.300,233.000 204.400 M150.556 205.322 C 150.514 206.512,150.540 206.537,150.923 205.687 C 151.172 205.133,151.190 204.630,150.967 204.409 C 150.745 204.187,150.582 204.548,150.556 205.322 M155.646 208.651 C 155.621 209.119,155.915 209.749,156.300 210.051 C 156.909 210.528,156.940 210.522,156.543 210.000 C 156.292 209.670,155.998 209.040,155.889 208.600 C 155.703 207.840,155.690 207.843,155.646 208.651 M243.357 208.330 C 243.511 208.579,243.439 209.192,243.196 209.692 C 242.774 210.562,242.782 210.568,243.378 209.824 C 244.121 208.897,244.155 208.543,243.538 208.162 C 243.255 207.987,243.185 208.052,243.357 208.330 M235.377 210.951 C 235.507 211.364,235.396 211.994,235.129 212.351 C 234.694 212.933,234.719 212.932,235.365 212.342 C 235.953 211.806,235.999 211.547,235.613 210.942 C 235.154 210.223,235.147 210.223,235.377 210.951 M163.307 211.352 C 163.358 211.766,163.850 212.373,164.400 212.701 L 165.400 213.298 164.548 212.549 C 164.080 212.137,163.588 211.530,163.455 211.200 C 163.288 210.783,163.242 210.829,163.307 211.352 M246.575 213.300 L 245.400 214.600 246.700 213.425 C 247.415 212.779,248.000 212.194,248.000 212.125 C 248.000 211.816,247.670 212.088,246.575 213.300 M231.200 215.400 C 230.228 216.390,229.523 217.200,229.633 217.200 C 229.743 217.200,230.628 216.390,231.600 215.400 C 232.572 214.410,233.277 213.600,233.167 213.600 C 233.057 213.600,232.172 214.410,231.200 215.400 M237.863 214.700 C 237.762 214.865,238.297 215.014,239.051 215.030 C 239.896 215.049,240.226 214.936,239.911 214.737 C 239.265 214.327,238.105 214.306,237.863 214.700 M171.600 218.600 C 173.017 220.030,174.267 221.200,174.377 221.200 C 174.487 221.200,173.417 220.030,172.000 218.600 C 170.583 217.170,169.333 216.000,169.223 216.000 C 169.113 216.000,170.183 217.170,171.600 218.600 M164.800 219.000 C 166.217 220.430,167.467 221.600,167.577 221.600 C 167.687 221.600,166.617 220.430,165.200 219.000 C 163.783 217.570,162.533 216.400,162.423 216.400 C 162.313 216.400,163.383 217.570,164.800 219.000 M232.400 221.400 C 231.428 222.390,230.723 223.200,230.833 223.200 C 230.943 223.200,231.828 222.390,232.800 221.400 C 233.772 220.410,234.477 219.600,234.367 219.600 C 234.257 219.600,233.372 220.410,232.400 221.400 M224.965 222.611 C 224.373 223.387,223.959 224.087,224.044 224.167 C 224.130 224.246,224.693 223.612,225.296 222.756 C 226.665 220.814,226.418 220.706,224.965 222.611 M174.815 221.800 C 174.817 222.020,175.186 222.650,175.636 223.200 C 176.179 223.864,176.315 223.931,176.040 223.400 C 175.366 222.095,174.812 221.372,174.815 221.800 " stroke="none" fill="#7c7c7c" fill-rule="evenodd"></path></g></svg>